<?xml version="1.0" encoding="UTF-8" standalone="no"?>
<!DOCTYPE svg PUBLIC "-//W3C//DTD SVG 1.1//EN"
 "http://www.w3.org/Graphics/SVG/1.1/DTD/svg11.dtd">
<!-- Generated by graphviz version 12.1.2 (20240928.0832)
 -->
<!-- Title: public.chats Pages: 1 -->
<svg width="1562pt" height="1191pt"
 viewBox="0.00 0.00 1562.46 1191.20" xmlns="http://www.w3.org/2000/svg" xmlns:xlink="http://www.w3.org/1999/xlink">
<g id="graph0" class="graph" transform="scale(1 1) rotate(0) translate(4 1187.2)">
<title>public.chats</title>
<polygon fill="white" stroke="none" points="-4,4 -4,-1187.2 1558.46,-1187.2 1558.46,4 -4,4"/>
<!-- public.chats -->
<g id="node1" class="node">
<title>public.chats</title>
<polygon fill="#efefef" stroke="none" points="636.2,-543 636.2,-578.6 909.34,-578.6 909.34,-543 636.2,-543"/>
<polygon fill="none" stroke="black" points="636.2,-543 636.2,-578.6 909.34,-578.6 909.34,-543 636.2,-543"/>
<text text-anchor="start" x="667.29" y="-556.4" font-family="Arial Bold" font-size="18.00">public.chats</text>
<text text-anchor="start" x="753.76" y="-556.4" font-family="Arial" font-size="14.00">    </text>
<text text-anchor="start" x="784.88" y="-556.4" font-family="Arial" font-size="14.00" fill="#666666">[BASE TABLE]</text>
<polygon fill="none" stroke="black" points="636.2,-512.2 636.2,-543 909.34,-543 909.34,-512.2 636.2,-512.2"/>
<text text-anchor="start" x="643.2" y="-524.4" font-family="Arial" font-size="14.00">id </text>
<text text-anchor="start" x="657.99" y="-524.4" font-family="Arial" font-size="14.00" fill="#666666">[uuid]</text>
<polygon fill="none" stroke="black" points="636.2,-481.4 636.2,-512.2 909.34,-512.2 909.34,-481.4 636.2,-481.4"/>
<text text-anchor="start" x="643.2" y="-493.6" font-family="Arial" font-size="14.00">user_id </text>
<text text-anchor="start" x="693.01" y="-493.6" font-family="Arial" font-size="14.00" fill="#666666">[uuid]</text>
<polygon fill="none" stroke="black" points="636.2,-450.6 636.2,-481.4 909.34,-481.4 909.34,-450.6 636.2,-450.6"/>
<text text-anchor="start" x="643.2" y="-462.8" font-family="Arial" font-size="14.00">title </text>
<text text-anchor="start" x="668.88" y="-462.8" font-family="Arial" font-size="14.00" fill="#666666">[varchar(200)]</text>
<polygon fill="none" stroke="black" points="636.2,-419.8 636.2,-450.6 909.34,-450.6 909.34,-419.8 636.2,-419.8"/>
<text text-anchor="start" x="643.2" y="-432" font-family="Arial" font-size="14.00">created_at </text>
<text text-anchor="start" x="713.25" y="-432" font-family="Arial" font-size="14.00" fill="#666666">[timestamp without time zone]</text>
<polygon fill="none" stroke="black" points="636.2,-389 636.2,-419.8 909.34,-419.8 909.34,-389 636.2,-389"/>
<text text-anchor="start" x="643.2" y="-401.2" font-family="Arial" font-size="14.00">updated_at </text>
<text text-anchor="start" x="717.16" y="-401.2" font-family="Arial" font-size="14.00" fill="#666666">[timestamp without time zone]</text>
<polygon fill="none" stroke="black" stroke-width="3" points="634.7,-387.5 634.7,-580.1 910.84,-580.1 910.84,-387.5 634.7,-387.5"/>
</g>
<!-- public.users -->
<g id="node6" class="node">
<title>public.users</title>
<polygon fill="#efefef" stroke="none" points="636.2,-228 636.2,-263.6 909.34,-263.6 909.34,-228 636.2,-228"/>
<polygon fill="none" stroke="black" points="636.2,-228 636.2,-263.6 909.34,-263.6 909.34,-228 636.2,-228"/>
<text text-anchor="start" x="667.28" y="-241.4" font-family="Arial Bold" font-size="18.00">public.users</text>
<text text-anchor="start" x="753.77" y="-241.4" font-family="Arial" font-size="14.00">    </text>
<text text-anchor="start" x="784.89" y="-241.4" font-family="Arial" font-size="14.00" fill="#666666">[BASE TABLE]</text>
<polygon fill="none" stroke="black" points="636.2,-197.2 636.2,-228 909.34,-228 909.34,-197.2 636.2,-197.2"/>
<text text-anchor="start" x="643.2" y="-209.4" font-family="Arial" font-size="14.00">id </text>
<text text-anchor="start" x="657.99" y="-209.4" font-family="Arial" font-size="14.00" fill="#666666">[uuid]</text>
<polygon fill="none" stroke="black" points="636.2,-166.4 636.2,-197.2 909.34,-197.2 909.34,-166.4 636.2,-166.4"/>
<text text-anchor="start" x="643.2" y="-178.6" font-family="Arial" font-size="14.00">firebase_uid </text>
<text text-anchor="start" x="723.37" y="-178.6" font-family="Arial" font-size="14.00" fill="#666666">[varchar(128)]</text>
<polygon fill="none" stroke="black" points="636.2,-135.6 636.2,-166.4 909.34,-166.4 909.34,-135.6 636.2,-135.6"/>
<text text-anchor="start" x="643.2" y="-147.8" font-family="Arial" font-size="14.00">email </text>
<text text-anchor="start" x="680.54" y="-147.8" font-family="Arial" font-size="14.00" fill="#666666">[varchar(255)]</text>
<polygon fill="none" stroke="black" points="636.2,-104.8 636.2,-135.6 909.34,-135.6 909.34,-104.8 636.2,-104.8"/>
<text text-anchor="start" x="643.2" y="-117" font-family="Arial" font-size="14.00">display_name </text>
<text text-anchor="start" x="733.48" y="-117" font-family="Arial" font-size="14.00" fill="#666666">[varchar(100)]</text>
<polygon fill="none" stroke="black" points="636.2,-74 636.2,-104.8 909.34,-104.8 909.34,-74 636.2,-74"/>
<text text-anchor="start" x="643.2" y="-86.2" font-family="Arial" font-size="14.00">created_at </text>
<text text-anchor="start" x="713.25" y="-86.2" font-family="Arial" font-size="14.00" fill="#666666">[timestamp without time zone]</text>
<polygon fill="none" stroke="black" points="636.2,-43.2 636.2,-74 909.34,-74 909.34,-43.2 636.2,-43.2"/>
<text text-anchor="start" x="643.2" y="-55.4" font-family="Arial" font-size="14.00">updated_at </text>
<text text-anchor="start" x="717.16" y="-55.4" font-family="Arial" font-size="14.00" fill="#666666">[timestamp without time zone]</text>
</g>
<!-- public.chats&#45;&gt;public.users -->
<g id="edge5" class="edge">
<title>public.chats:user_id&#45;&gt;public.users:id</title>
<path fill="none" stroke="black" d="M920.42,-496.17C1036.56,-481.47 1033.2,-212.6 910.34,-212.6"/>
<polygon fill="black" stroke="black" points="920.66,-496.16 910.4,-492.29 915.33,-496.49 911.01,-496.76 911.01,-496.76 911.01,-496.76 915.33,-496.49 910.96,-501.27 920.66,-496.16"/>
<text text-anchor="start" x="917.34" y="-506.8" font-family="Arial" font-size="10.00">FOREIGN KEY (user_id) REFERENCES users(id) ON DELETE CASCADE</text>
</g>
<!-- public.personas -->
<g id="node2" class="node">
<title>public.personas</title>
<polygon fill="#efefef" stroke="none" points="43.2,-1104.4 43.2,-1140 316.34,-1140 316.34,-1104.4 43.2,-1104.4"/>
<polygon fill="none" stroke="black" points="43.2,-1104.4 43.2,-1140 316.34,-1140 316.34,-1104.4 43.2,-1104.4"/>
<text text-anchor="start" x="61.29" y="-1117.8" font-family="Arial Bold" font-size="18.00">public.personas</text>
<text text-anchor="start" x="173.76" y="-1117.8" font-family="Arial" font-size="14.00">    </text>
<text text-anchor="start" x="204.88" y="-1117.8" font-family="Arial" font-size="14.00" fill="#666666">[BASE TABLE]</text>
<polygon fill="none" stroke="black" points="43.2,-1073.6 43.2,-1104.4 316.34,-1104.4 316.34,-1073.6 43.2,-1073.6"/>
<text text-anchor="start" x="50.2" y="-1085.8" font-family="Arial" font-size="14.00">id </text>
<text text-anchor="start" x="64.99" y="-1085.8" font-family="Arial" font-size="14.00" fill="#666666">[uuid]</text>
<polygon fill="none" stroke="black" points="43.2,-1042.8 43.2,-1073.6 316.34,-1073.6 316.34,-1042.8 43.2,-1042.8"/>
<text text-anchor="start" x="50.2" y="-1055" font-family="Arial" font-size="14.00">user_id </text>
<text text-anchor="start" x="100.01" y="-1055" font-family="Arial" font-size="14.00" fill="#666666">[uuid]</text>
<polygon fill="none" stroke="black" points="43.2,-1012 43.2,-1042.8 316.34,-1042.8 316.34,-1012 43.2,-1012"/>
<text text-anchor="start" x="50.2" y="-1024.2" font-family="Arial" font-size="14.00">chat_id </text>
<text text-anchor="start" x="99.23" y="-1024.2" font-family="Arial" font-size="14.00" fill="#666666">[uuid]</text>
<polygon fill="none" stroke="black" points="43.2,-981.2 43.2,-1012 316.34,-1012 316.34,-981.2 43.2,-981.2"/>
<text text-anchor="start" x="50.2" y="-993.4" font-family="Arial" font-size="14.00">persona_type </text>
<text text-anchor="start" x="138.93" y="-993.4" font-family="Arial" font-size="14.00" fill="#666666">[varchar(10)]</text>
<polygon fill="none" stroke="black" points="43.2,-950.4 43.2,-981.2 316.34,-981.2 316.34,-950.4 43.2,-950.4"/>
<text text-anchor="start" x="50.2" y="-962.6" font-family="Arial" font-size="14.00">preset_key_id </text>
<text text-anchor="start" x="141.25" y="-962.6" font-family="Arial" font-size="14.00" fill="#666666">[varchar(50)]</text>
<polygon fill="none" stroke="black" points="43.2,-919.6 43.2,-950.4 316.34,-950.4 316.34,-919.6 43.2,-919.6"/>
<text text-anchor="start" x="50.2" y="-931.8" font-family="Arial" font-size="14.00">name </text>
<text text-anchor="start" x="89.11" y="-931.8" font-family="Arial" font-size="14.00" fill="#666666">[varchar(100)]</text>
<polygon fill="none" stroke="black" points="43.2,-888.8 43.2,-919.6 316.34,-919.6 316.34,-888.8 43.2,-888.8"/>
<text text-anchor="start" x="50.2" y="-901" font-family="Arial" font-size="14.00">gender </text>
<text text-anchor="start" x="97.68" y="-901" font-family="Arial" font-size="14.00" fill="#666666">[varchar(20)]</text>
<polygon fill="none" stroke="black" points="43.2,-858 43.2,-888.8 316.34,-888.8 316.34,-858 43.2,-858"/>
<text text-anchor="start" x="50.2" y="-870.2" font-family="Arial" font-size="14.00">age </text>
<text text-anchor="start" x="77.45" y="-870.2" font-family="Arial" font-size="14.00" fill="#666666">[integer]</text>
<polygon fill="none" stroke="black" points="43.2,-827.2 43.2,-858 316.34,-858 316.34,-827.2 43.2,-827.2"/>
<text text-anchor="start" x="50.2" y="-839.4" font-family="Arial" font-size="14.00">occupation </text>
<text text-anchor="start" x="121.81" y="-839.4" font-family="Arial" font-size="14.00" fill="#666666">[varchar(100)]</text>
<polygon fill="none" stroke="black" points="43.2,-796.4 43.2,-827.2 316.34,-827.2 316.34,-796.4 43.2,-796.4"/>
<text text-anchor="start" x="50.2" y="-808.6" font-family="Arial" font-size="14.00">annual_income </text>
<text text-anchor="start" x="149.05" y="-808.6" font-family="Arial" font-size="14.00" fill="#666666">[integer]</text>
<polygon fill="none" stroke="black" points="43.2,-765.6 43.2,-796.4 316.34,-796.4 316.34,-765.6 43.2,-765.6"/>
<text text-anchor="start" x="50.2" y="-777.8" font-family="Arial" font-size="14.00">system_prompt </text>
<text text-anchor="start" x="149.79" y="-777.8" font-family="Arial" font-size="14.00" fill="#666666">[text]</text>
<polygon fill="none" stroke="black" points="43.2,-734.8 43.2,-765.6 316.34,-765.6 316.34,-734.8 43.2,-734.8"/>
<text text-anchor="start" x="50.2" y="-747" font-family="Arial" font-size="14.00">created_at </text>
<text text-anchor="start" x="120.25" y="-747" font-family="Arial" font-size="14.00" fill="#666666">[timestamp without time zone]</text>
<polygon fill="none" stroke="black" points="43.2,-704 43.2,-734.8 316.34,-734.8 316.34,-704 43.2,-704"/>
<text text-anchor="start" x="50.2" y="-716.2" font-family="Arial" font-size="14.00">updated_at </text>
<text text-anchor="start" x="124.16" y="-716.2" font-family="Arial" font-size="14.00" fill="#666666">[timestamp without time zone]</text>
</g>
<!-- public.personas&#45;&gt;public.chats -->
<g id="edge1" class="edge">
<title>public.personas:chat_id&#45;&gt;public.chats:id</title>
<path fill="none" stroke="black" d="M327.47,-1025.63C392.67,-1000.93 321.97,-724.6 367.77,-660.8 445.21,-552.94 502.42,-527.6 635.2,-527.6"/>
<polygon fill="black" stroke="black" points="327.52,-1025.62 316.9,-1022.91 322.27,-1026.54 318,-1027.29 318,-1027.29 318,-1027.29 322.27,-1026.54 318.45,-1031.78 327.52,-1025.62"/>
<text text-anchor="start" x="324.34" y="-1037.4" font-family="Arial" font-size="10.00">FOREIGN KEY (chat_id) REFERENCES chats(id) ON DELETE CASCADE</text>
</g>
<!-- public.chat_participants -->
<g id="node3" class="node">
<title>public.chat_participants</title>
<polygon fill="#efefef" stroke="none" points="420.31,-965.8 420.31,-1001.4 731.24,-1001.4 731.24,-965.8 420.31,-965.8"/>
<polygon fill="none" stroke="black" points="420.31,-965.8 420.31,-1001.4 731.24,-1001.4 731.24,-965.8 420.31,-965.8"/>
<text text-anchor="start" x="427.31" y="-979.2" font-family="Arial Bold" font-size="18.00">public.chat_participants</text>
<text text-anchor="start" x="599.75" y="-979.2" font-family="Arial" font-size="14.00">    </text>
<text text-anchor="start" x="630.87" y="-979.2" font-family="Arial" font-size="14.00" fill="#666666">[BASE TABLE]</text>
<polygon fill="none" stroke="black" points="420.31,-935 420.31,-965.8 731.24,-965.8 731.24,-935 420.31,-935"/>
<text text-anchor="start" x="427.31" y="-947.2" font-family="Arial" font-size="14.00">id </text>
<text text-anchor="start" x="442.09" y="-947.2" font-family="Arial" font-size="14.00" fill="#666666">[uuid]</text>
<polygon fill="none" stroke="black" points="420.31,-904.2 420.31,-935 731.24,-935 731.24,-904.2 420.31,-904.2"/>
<text text-anchor="start" x="427.31" y="-916.4" font-family="Arial" font-size="14.00">chat_id </text>
<text text-anchor="start" x="476.34" y="-916.4" font-family="Arial" font-size="14.00" fill="#666666">[uuid]</text>
<polygon fill="none" stroke="black" points="420.31,-873.4 420.31,-904.2 731.24,-904.2 731.24,-873.4 420.31,-873.4"/>
<text text-anchor="start" x="427.31" y="-885.6" font-family="Arial" font-size="14.00">persona_id </text>
<text text-anchor="start" x="500.47" y="-885.6" font-family="Arial" font-size="14.00" fill="#666666">[uuid]</text>
<polygon fill="none" stroke="black" points="420.31,-842.6 420.31,-873.4 731.24,-873.4 731.24,-842.6 420.31,-842.6"/>
<text text-anchor="start" x="427.31" y="-854.8" font-family="Arial" font-size="14.00">joined_at </text>
<text text-anchor="start" x="488.02" y="-854.8" font-family="Arial" font-size="14.00" fill="#666666">[timestamp without time zone]</text>
</g>
<!-- public.chat_participants&#45;&gt;public.chats -->
<g id="edge2" class="edge">
<title>public.chat_participants:chat_id&#45;&gt;public.chats:id</title>
<path fill="none" stroke="black" d="M742.49,-919.11C893.28,-903.69 459.4,-527.6 635.2,-527.6"/>
<polygon fill="black" stroke="black" points="742.56,-919.11 732.36,-915.09 737.23,-919.36 732.91,-919.57 732.91,-919.57 732.91,-919.57 737.23,-919.36 732.79,-924.08 742.56,-919.11"/>
<text text-anchor="start" x="739.24" y="-929.6" font-family="Arial" font-size="10.00">FOREIGN KEY (chat_id) REFERENCES chats(id) ON DELETE CASCADE</text>
</g>
<!-- public.messages -->
<g id="node4" class="node">
<title>public.messages</title>
<polygon fill="#efefef" stroke="none" points="835.16,-996.6 835.16,-1032.2 1104.39,-1032.2 1104.39,-996.6 835.16,-996.6"/>
<polygon fill="none" stroke="black" points="835.16,-996.6 835.16,-1032.2 1104.39,-1032.2 1104.39,-996.6 835.16,-996.6"/>
<text text-anchor="start" x="848.79" y="-1010" font-family="Arial Bold" font-size="18.00">public.messages</text>
<text text-anchor="start" x="966.26" y="-1010" font-family="Arial" font-size="14.00">    </text>
<text text-anchor="start" x="997.38" y="-1010" font-family="Arial" font-size="14.00" fill="#666666">[BASE TABLE]</text>
<polygon fill="none" stroke="black" points="835.16,-965.8 835.16,-996.6 1104.39,-996.6 1104.39,-965.8 835.16,-965.8"/>
<text text-anchor="start" x="842.16" y="-978" font-family="Arial" font-size="14.00">id </text>
<text text-anchor="start" x="856.94" y="-978" font-family="Arial" font-size="14.00" fill="#666666">[uuid]</text>
<polygon fill="none" stroke="black" points="835.16,-935 835.16,-965.8 1104.39,-965.8 1104.39,-935 835.16,-935"/>
<text text-anchor="start" x="842.16" y="-947.2" font-family="Arial" font-size="14.00">chat_id </text>
<text text-anchor="start" x="891.19" y="-947.2" font-family="Arial" font-size="14.00" fill="#666666">[uuid]</text>
<polygon fill="none" stroke="black" points="835.16,-904.2 835.16,-935 1104.39,-935 1104.39,-904.2 835.16,-904.2"/>
<text text-anchor="start" x="842.16" y="-916.4" font-family="Arial" font-size="14.00">sender_type </text>
<text text-anchor="start" x="923.1" y="-916.4" font-family="Arial" font-size="14.00" fill="#666666">[varchar(10)]</text>
<polygon fill="none" stroke="black" points="835.16,-873.4 835.16,-904.2 1104.39,-904.2 1104.39,-873.4 835.16,-873.4"/>
<text text-anchor="start" x="842.16" y="-885.6" font-family="Arial" font-size="14.00">persona_id </text>
<text text-anchor="start" x="915.32" y="-885.6" font-family="Arial" font-size="14.00" fill="#666666">[uuid]</text>
<polygon fill="none" stroke="black" points="835.16,-842.6 835.16,-873.4 1104.39,-873.4 1104.39,-842.6 835.16,-842.6"/>
<text text-anchor="start" x="842.16" y="-854.8" font-family="Arial" font-size="14.00">content </text>
<text text-anchor="start" x="891.97" y="-854.8" font-family="Arial" font-size="14.00" fill="#666666">[text]</text>
<polygon fill="none" stroke="black" points="835.16,-811.8 835.16,-842.6 1104.39,-842.6 1104.39,-811.8 835.16,-811.8"/>
<text text-anchor="start" x="842.16" y="-824" font-family="Arial" font-size="14.00">created_at </text>
<text text-anchor="start" x="912.2" y="-824" font-family="Arial" font-size="14.00" fill="#666666">[timestamp without time zone]</text>
</g>
<!-- public.messages&#45;&gt;public.chats -->
<g id="edge3" class="edge">
<title>public.messages:chat_id&#45;&gt;public.chats:id</title>
<path fill="none" stroke="black" d="M824.12,-949.79C758.88,-941.17 816.74,-843.54 835.16,-768.6 852.31,-698.76 892.02,-694.6 909.34,-624.8 919.75,-582.87 953.55,-527.6 910.34,-527.6"/>
<polygon fill="black" stroke="black" points="823.84,-949.77 833.55,-954.87 829.16,-950.09 833.49,-950.36 833.49,-950.36 833.49,-950.36 829.16,-950.09 834.1,-945.89 823.84,-949.77"/>
<text text-anchor="start" x="494.3" y="-960.4" font-family="Arial" font-size="10.00">FOREIGN KEY (chat_id) REFERENCES chats(id) ON DELETE CASCADE</text>
</g>
<!-- public.insights -->
<g id="node5" class="node">
<title>public.insights</title>
<polygon fill="#efefef" stroke="none" points="1209.16,-996.6 1209.16,-1032.2 1478.39,-1032.2 1478.39,-996.6 1209.16,-996.6"/>
<polygon fill="none" stroke="black" points="1209.16,-996.6 1209.16,-1032.2 1478.39,-1032.2 1478.39,-996.6 1209.16,-996.6"/>
<text text-anchor="start" x="1228.78" y="-1010" font-family="Arial Bold" font-size="18.00">public.insights</text>
<text text-anchor="start" x="1334.28" y="-1010" font-family="Arial" font-size="14.00">    </text>
<text text-anchor="start" x="1365.4" y="-1010" font-family="Arial" font-size="14.00" fill="#666666">[BASE TABLE]</text>
<polygon fill="none" stroke="black" points="1209.16,-965.8 1209.16,-996.6 1478.39,-996.6 1478.39,-965.8 1209.16,-965.8"/>
<text text-anchor="start" x="1216.16" y="-978" font-family="Arial" font-size="14.00">id </text>
<text text-anchor="start" x="1230.94" y="-978" font-family="Arial" font-size="14.00" fill="#666666">[uuid]</text>
<polygon fill="none" stroke="black" points="1209.16,-935 1209.16,-965.8 1478.39,-965.8 1478.39,-935 1209.16,-935"/>
<text text-anchor="start" x="1216.16" y="-947.2" font-family="Arial" font-size="14.00">user_id </text>
<text text-anchor="start" x="1265.96" y="-947.2" font-family="Arial" font-size="14.00" fill="#666666">[uuid]</text>
<polygon fill="none" stroke="black" points="1209.16,-904.2 1209.16,-935 1478.39,-935 1478.39,-904.2 1209.16,-904.2"/>
<text text-anchor="start" x="1216.16" y="-916.4" font-family="Arial" font-size="14.00">chat_id </text>
<text text-anchor="start" x="1265.19" y="-916.4" font-family="Arial" font-size="14.00" fill="#666666">[uuid]</text>
<polygon fill="none" stroke="black" points="1209.16,-873.4 1209.16,-904.2 1478.39,-904.2 1478.39,-873.4 1209.16,-873.4"/>
<text text-anchor="start" x="1216.16" y="-885.6" font-family="Arial" font-size="14.00">category_id </text>
<text text-anchor="start" x="1292.42" y="-885.6" font-family="Arial" font-size="14.00" fill="#666666">[uuid]</text>
<polygon fill="none" stroke="black" points="1209.16,-842.6 1209.16,-873.4 1478.39,-873.4 1478.39,-842.6 1209.16,-842.6"/>
<text text-anchor="start" x="1216.16" y="-854.8" font-family="Arial" font-size="14.00">content </text>
<text text-anchor="start" x="1265.97" y="-854.8" font-family="Arial" font-size="14.00" fill="#666666">[text]</text>
<polygon fill="none" stroke="black" points="1209.16,-811.8 1209.16,-842.6 1478.39,-842.6 1478.39,-811.8 1209.16,-811.8"/>
<text text-anchor="start" x="1216.16" y="-824" font-family="Arial" font-size="14.00">created_at </text>
<text text-anchor="start" x="1286.2" y="-824" font-family="Arial" font-size="14.00" fill="#666666">[timestamp without time zone]</text>
</g>
<!-- public.insights&#45;&gt;public.chats -->
<g id="edge4" class="edge">
<title>public.insights:chat_id&#45;&gt;public.chats:id</title>
<path fill="none" stroke="black" d="M1197.89,-919.13C1099.16,-909.39 1224.22,-752.22 1156.77,-660.8 1082.86,-560.62 1034.84,-527.6 910.34,-527.6"/>
<polygon fill="black" stroke="black" points="1197.83,-919.12 1207.61,-924.08 1203.16,-919.37 1207.49,-919.57 1207.49,-919.57 1207.49,-919.57 1203.16,-919.37 1208.03,-915.09 1197.83,-919.12"/>
<text text-anchor="start" x="1215.16" y="-929.6" font-family="Arial" font-size="10.00">FOREIGN KEY (chat_id) REFERENCES chats(id) ON DELETE SET NULL</text>
</g>
</g>
</svg>
