<?xml version="1.0" encoding="UTF-8" standalone="no"?>
<!DOCTYPE svg PUBLIC "-//W3C//DTD SVG 1.1//EN"
 "http://www.w3.org/Graphics/SVG/1.1/DTD/svg11.dtd">
<!-- Generated by graphviz version 12.1.2 (20240928.0832)
 -->
<!-- Title: public.personas Pages: 1 -->
<svg width="1124pt" height="1222pt"
 viewBox="0.00 0.00 1123.54 1222.00" xmlns="http://www.w3.org/2000/svg" xmlns:xlink="http://www.w3.org/1999/xlink">
<g id="graph0" class="graph" transform="scale(1 1) rotate(0) translate(4 1218)">
<title>public.personas</title>
<polygon fill="white" stroke="none" points="-4,4 -4,-1218 1119.54,-1218 1119.54,4 -4,4"/>
<!-- public.personas -->
<g id="node1" class="node">
<title>public.personas</title>
<polygon fill="#efefef" stroke="none" points="421.2,-789.4 421.2,-825 694.34,-825 694.34,-789.4 421.2,-789.4"/>
<polygon fill="none" stroke="black" points="421.2,-789.4 421.2,-825 694.34,-825 694.34,-789.4 421.2,-789.4"/>
<text text-anchor="start" x="439.29" y="-802.8" font-family="Arial Bold" font-size="18.00">public.personas</text>
<text text-anchor="start" x="551.76" y="-802.8" font-family="Arial" font-size="14.00">    </text>
<text text-anchor="start" x="582.88" y="-802.8" font-family="Arial" font-size="14.00" fill="#666666">[BASE TABLE]</text>
<polygon fill="none" stroke="black" points="421.2,-758.6 421.2,-789.4 694.34,-789.4 694.34,-758.6 421.2,-758.6"/>
<text text-anchor="start" x="428.2" y="-770.8" font-family="Arial" font-size="14.00">id </text>
<text text-anchor="start" x="442.99" y="-770.8" font-family="Arial" font-size="14.00" fill="#666666">[uuid]</text>
<polygon fill="none" stroke="black" points="421.2,-727.8 421.2,-758.6 694.34,-758.6 694.34,-727.8 421.2,-727.8"/>
<text text-anchor="start" x="428.2" y="-740" font-family="Arial" font-size="14.00">user_id </text>
<text text-anchor="start" x="478.01" y="-740" font-family="Arial" font-size="14.00" fill="#666666">[uuid]</text>
<polygon fill="none" stroke="black" points="421.2,-697 421.2,-727.8 694.34,-727.8 694.34,-697 421.2,-697"/>
<text text-anchor="start" x="428.2" y="-709.2" font-family="Arial" font-size="14.00">chat_id </text>
<text text-anchor="start" x="477.23" y="-709.2" font-family="Arial" font-size="14.00" fill="#666666">[uuid]</text>
<polygon fill="none" stroke="black" points="421.2,-666.2 421.2,-697 694.34,-697 694.34,-666.2 421.2,-666.2"/>
<text text-anchor="start" x="428.2" y="-678.4" font-family="Arial" font-size="14.00">persona_type </text>
<text text-anchor="start" x="516.93" y="-678.4" font-family="Arial" font-size="14.00" fill="#666666">[varchar(10)]</text>
<polygon fill="none" stroke="black" points="421.2,-635.4 421.2,-666.2 694.34,-666.2 694.34,-635.4 421.2,-635.4"/>
<text text-anchor="start" x="428.2" y="-647.6" font-family="Arial" font-size="14.00">preset_key_id </text>
<text text-anchor="start" x="519.25" y="-647.6" font-family="Arial" font-size="14.00" fill="#666666">[varchar(50)]</text>
<polygon fill="none" stroke="black" points="421.2,-604.6 421.2,-635.4 694.34,-635.4 694.34,-604.6 421.2,-604.6"/>
<text text-anchor="start" x="428.2" y="-616.8" font-family="Arial" font-size="14.00">name </text>
<text text-anchor="start" x="467.11" y="-616.8" font-family="Arial" font-size="14.00" fill="#666666">[varchar(100)]</text>
<polygon fill="none" stroke="black" points="421.2,-573.8 421.2,-604.6 694.34,-604.6 694.34,-573.8 421.2,-573.8"/>
<text text-anchor="start" x="428.2" y="-586" font-family="Arial" font-size="14.00">gender </text>
<text text-anchor="start" x="475.68" y="-586" font-family="Arial" font-size="14.00" fill="#666666">[varchar(20)]</text>
<polygon fill="none" stroke="black" points="421.2,-543 421.2,-573.8 694.34,-573.8 694.34,-543 421.2,-543"/>
<text text-anchor="start" x="428.2" y="-555.2" font-family="Arial" font-size="14.00">age </text>
<text text-anchor="start" x="455.45" y="-555.2" font-family="Arial" font-size="14.00" fill="#666666">[integer]</text>
<polygon fill="none" stroke="black" points="421.2,-512.2 421.2,-543 694.34,-543 694.34,-512.2 421.2,-512.2"/>
<text text-anchor="start" x="428.2" y="-524.4" font-family="Arial" font-size="14.00">occupation </text>
<text text-anchor="start" x="499.81" y="-524.4" font-family="Arial" font-size="14.00" fill="#666666">[varchar(100)]</text>
<polygon fill="none" stroke="black" points="421.2,-481.4 421.2,-512.2 694.34,-512.2 694.34,-481.4 421.2,-481.4"/>
<text text-anchor="start" x="428.2" y="-493.6" font-family="Arial" font-size="14.00">annual_income </text>
<text text-anchor="start" x="527.05" y="-493.6" font-family="Arial" font-size="14.00" fill="#666666">[integer]</text>
<polygon fill="none" stroke="black" points="421.2,-450.6 421.2,-481.4 694.34,-481.4 694.34,-450.6 421.2,-450.6"/>
<text text-anchor="start" x="428.2" y="-462.8" font-family="Arial" font-size="14.00">system_prompt </text>
<text text-anchor="start" x="527.79" y="-462.8" font-family="Arial" font-size="14.00" fill="#666666">[text]</text>
<polygon fill="none" stroke="black" points="421.2,-419.8 421.2,-450.6 694.34,-450.6 694.34,-419.8 421.2,-419.8"/>
<text text-anchor="start" x="428.2" y="-432" font-family="Arial" font-size="14.00">created_at </text>
<text text-anchor="start" x="498.25" y="-432" font-family="Arial" font-size="14.00" fill="#666666">[timestamp without time zone]</text>
<polygon fill="none" stroke="black" points="421.2,-389 421.2,-419.8 694.34,-419.8 694.34,-389 421.2,-389"/>
<text text-anchor="start" x="428.2" y="-401.2" font-family="Arial" font-size="14.00">updated_at </text>
<text text-anchor="start" x="502.16" y="-401.2" font-family="Arial" font-size="14.00" fill="#666666">[timestamp without time zone]</text>
<polygon fill="none" stroke="black" stroke-width="3" points="419.7,-387.5 419.7,-826.5 695.84,-826.5 695.84,-387.5 419.7,-387.5"/>
</g>
<!-- public.users -->
<g id="node4" class="node">
<title>public.users</title>
<polygon fill="#efefef" stroke="none" points="43.2,-228 43.2,-263.6 316.34,-263.6 316.34,-228 43.2,-228"/>
<polygon fill="none" stroke="black" points="43.2,-228 43.2,-263.6 316.34,-263.6 316.34,-228 43.2,-228"/>
<text text-anchor="start" x="74.28" y="-241.4" font-family="Arial Bold" font-size="18.00">public.users</text>
<text text-anchor="start" x="160.77" y="-241.4" font-family="Arial" font-size="14.00">    </text>
<text text-anchor="start" x="191.89" y="-241.4" font-family="Arial" font-size="14.00" fill="#666666">[BASE TABLE]</text>
<polygon fill="none" stroke="black" points="43.2,-197.2 43.2,-228 316.34,-228 316.34,-197.2 43.2,-197.2"/>
<text text-anchor="start" x="50.2" y="-209.4" font-family="Arial" font-size="14.00">id </text>
<text text-anchor="start" x="64.99" y="-209.4" font-family="Arial" font-size="14.00" fill="#666666">[uuid]</text>
<polygon fill="none" stroke="black" points="43.2,-166.4 43.2,-197.2 316.34,-197.2 316.34,-166.4 43.2,-166.4"/>
<text text-anchor="start" x="50.2" y="-178.6" font-family="Arial" font-size="14.00">firebase_uid </text>
<text text-anchor="start" x="130.37" y="-178.6" font-family="Arial" font-size="14.00" fill="#666666">[varchar(128)]</text>
<polygon fill="none" stroke="black" points="43.2,-135.6 43.2,-166.4 316.34,-166.4 316.34,-135.6 43.2,-135.6"/>
<text text-anchor="start" x="50.2" y="-147.8" font-family="Arial" font-size="14.00">email </text>
<text text-anchor="start" x="87.54" y="-147.8" font-family="Arial" font-size="14.00" fill="#666666">[varchar(255)]</text>
<polygon fill="none" stroke="black" points="43.2,-104.8 43.2,-135.6 316.34,-135.6 316.34,-104.8 43.2,-104.8"/>
<text text-anchor="start" x="50.2" y="-117" font-family="Arial" font-size="14.00">display_name </text>
<text text-anchor="start" x="140.48" y="-117" font-family="Arial" font-size="14.00" fill="#666666">[varchar(100)]</text>
<polygon fill="none" stroke="black" points="43.2,-74 43.2,-104.8 316.34,-104.8 316.34,-74 43.2,-74"/>
<text text-anchor="start" x="50.2" y="-86.2" font-family="Arial" font-size="14.00">created_at </text>
<text text-anchor="start" x="120.25" y="-86.2" font-family="Arial" font-size="14.00" fill="#666666">[timestamp without time zone]</text>
<polygon fill="none" stroke="black" points="43.2,-43.2 43.2,-74 316.34,-74 316.34,-43.2 43.2,-43.2"/>
<text text-anchor="start" x="50.2" y="-55.4" font-family="Arial" font-size="14.00">updated_at </text>
<text text-anchor="start" x="124.16" y="-55.4" font-family="Arial" font-size="14.00" fill="#666666">[timestamp without time zone]</text>
</g>
<!-- public.personas&#45;&gt;public.users -->
<g id="edge3" class="edge">
<title>public.personas:user_id&#45;&gt;public.users:id</title>
<path fill="none" stroke="black" d="M409.99,-741.77C308.17,-711.56 433.81,-212.6 317.34,-212.6"/>
<polygon fill="black" stroke="black" points="409.97,-741.77 419.25,-747.61 415.25,-742.51 419.54,-743.11 419.54,-743.11 419.54,-743.11 415.25,-742.51 420.49,-738.7 409.97,-741.77"/>
<text text-anchor="start" x="79.24" y="-753.2" font-family="Arial" font-size="10.00">FOREIGN KEY (user_id) REFERENCES users(id) ON DELETE CASCADE</text>
</g>
<!-- public.chats -->
<g id="node5" class="node">
<title>public.chats</title>
<polygon fill="#efefef" stroke="none" points="421.2,-212.6 421.2,-248.2 694.34,-248.2 694.34,-212.6 421.2,-212.6"/>
<polygon fill="none" stroke="black" points="421.2,-212.6 421.2,-248.2 694.34,-248.2 694.34,-212.6 421.2,-212.6"/>
<text text-anchor="start" x="452.29" y="-226" font-family="Arial Bold" font-size="18.00">public.chats</text>
<text text-anchor="start" x="538.76" y="-226" font-family="Arial" font-size="14.00">    </text>
<text text-anchor="start" x="569.88" y="-226" font-family="Arial" font-size="14.00" fill="#666666">[BASE TABLE]</text>
<polygon fill="none" stroke="black" points="421.2,-181.8 421.2,-212.6 694.34,-212.6 694.34,-181.8 421.2,-181.8"/>
<text text-anchor="start" x="428.2" y="-194" font-family="Arial" font-size="14.00">id </text>
<text text-anchor="start" x="442.99" y="-194" font-family="Arial" font-size="14.00" fill="#666666">[uuid]</text>
<polygon fill="none" stroke="black" points="421.2,-151 421.2,-181.8 694.34,-181.8 694.34,-151 421.2,-151"/>
<text text-anchor="start" x="428.2" y="-163.2" font-family="Arial" font-size="14.00">user_id </text>
<text text-anchor="start" x="478.01" y="-163.2" font-family="Arial" font-size="14.00" fill="#666666">[uuid]</text>
<polygon fill="none" stroke="black" points="421.2,-120.2 421.2,-151 694.34,-151 694.34,-120.2 421.2,-120.2"/>
<text text-anchor="start" x="428.2" y="-132.4" font-family="Arial" font-size="14.00">title </text>
<text text-anchor="start" x="453.88" y="-132.4" font-family="Arial" font-size="14.00" fill="#666666">[varchar(200)]</text>
<polygon fill="none" stroke="black" points="421.2,-89.4 421.2,-120.2 694.34,-120.2 694.34,-89.4 421.2,-89.4"/>
<text text-anchor="start" x="428.2" y="-101.6" font-family="Arial" font-size="14.00">created_at </text>
<text text-anchor="start" x="498.25" y="-101.6" font-family="Arial" font-size="14.00" fill="#666666">[timestamp without time zone]</text>
<polygon fill="none" stroke="black" points="421.2,-58.6 421.2,-89.4 694.34,-89.4 694.34,-58.6 421.2,-58.6"/>
<text text-anchor="start" x="428.2" y="-70.8" font-family="Arial" font-size="14.00">updated_at </text>
<text text-anchor="start" x="502.16" y="-70.8" font-family="Arial" font-size="14.00" fill="#666666">[timestamp without time zone]</text>
</g>
<!-- public.personas&#45;&gt;public.chats -->
<g id="edge4" class="edge">
<title>public.personas:chat_id&#45;&gt;public.chats:id</title>
<path fill="none" stroke="black" d="M704.52,-707.63C752.4,-655.69 749.35,-197.2 695.34,-197.2"/>
<polygon fill="black" stroke="black" points="704.51,-707.63 693.56,-708.25 699.78,-710.09 695.94,-712.09 695.94,-712.09 695.94,-712.09 699.78,-710.09 697.72,-716.24 704.51,-707.63"/>
<text text-anchor="start" x="702.34" y="-722.4" font-family="Arial" font-size="10.00">FOREIGN KEY (chat_id) REFERENCES chats(id) ON DELETE CASCADE</text>
</g>
<!-- public.preset_keys -->
<g id="node6" class="node">
<title>public.preset_keys</title>
<polygon fill="#efefef" stroke="none" points="799.2,-197.2 799.2,-232.8 1072.34,-232.8 1072.34,-197.2 799.2,-197.2"/>
<polygon fill="none" stroke="black" points="799.2,-197.2 799.2,-232.8 1072.34,-232.8 1072.34,-197.2 799.2,-197.2"/>
<text text-anchor="start" x="806.3" y="-210.6" font-family="Arial Bold" font-size="18.00">public.preset_keys</text>
<text text-anchor="start" x="940.76" y="-210.6" font-family="Arial" font-size="14.00">    </text>
<text text-anchor="start" x="971.88" y="-210.6" font-family="Arial" font-size="14.00" fill="#666666">[BASE TABLE]</text>
<polygon fill="none" stroke="black" points="799.2,-166.4 799.2,-197.2 1072.34,-197.2 1072.34,-166.4 799.2,-166.4"/>
<text text-anchor="start" x="806.2" y="-178.6" font-family="Arial" font-size="14.00">id </text>
<text text-anchor="start" x="820.99" y="-178.6" font-family="Arial" font-size="14.00" fill="#666666">[varchar(50)]</text>
<polygon fill="none" stroke="black" points="799.2,-135.6 799.2,-166.4 1072.34,-166.4 1072.34,-135.6 799.2,-135.6"/>
<text text-anchor="start" x="806.2" y="-147.8" font-family="Arial" font-size="14.00">label </text>
<text text-anchor="start" x="839.67" y="-147.8" font-family="Arial" font-size="14.00" fill="#666666">[varchar(100)]</text>
<polygon fill="none" stroke="black" points="799.2,-104.8 799.2,-135.6 1072.34,-135.6 1072.34,-104.8 799.2,-104.8"/>
<text text-anchor="start" x="806.2" y="-117" font-family="Arial" font-size="14.00">created_at </text>
<text text-anchor="start" x="876.25" y="-117" font-family="Arial" font-size="14.00" fill="#666666">[timestamp without time zone]</text>
<polygon fill="none" stroke="black" points="799.2,-74 799.2,-104.8 1072.34,-104.8 1072.34,-74 799.2,-74"/>
<text text-anchor="start" x="806.2" y="-86.2" font-family="Arial" font-size="14.00">updated_at </text>
<text text-anchor="start" x="880.16" y="-86.2" font-family="Arial" font-size="14.00" fill="#666666">[timestamp without time zone]</text>
</g>
<!-- public.personas&#45;&gt;public.preset_keys -->
<g id="edge5" class="edge">
<title>public.personas:preset_key_id&#45;&gt;public.preset_keys:id</title>
<path fill="none" stroke="black" d="M705.54,-649.19C794.74,-619.29 695.15,-181.8 798.2,-181.8"/>
<polygon fill="black" stroke="black" points="705.55,-649.19 694.97,-646.3 700.28,-650.02 696,-650.7 696,-650.7 696,-650.7 700.28,-650.02 696.37,-655.19 705.55,-649.19"/>
<text text-anchor="start" x="702.34" y="-660.8" font-family="Arial" font-size="10.00">FOREIGN KEY (preset_key_id) REFERENCES preset_keys(id)</text>
</g>
<!-- public.chat_participants -->
<g id="node2" class="node">
<title>public.chat_participants</title>
<polygon fill="#efefef" stroke="none" points="205.31,-1104.4 205.31,-1140 516.24,-1140 516.24,-1104.4 205.31,-1104.4"/>
<polygon fill="none" stroke="black" points="205.31,-1104.4 205.31,-1140 516.24,-1140 516.24,-1104.4 205.31,-1104.4"/>
<text text-anchor="start" x="212.31" y="-1117.8" font-family="Arial Bold" font-size="18.00">public.chat_participants</text>
<text text-anchor="start" x="384.75" y="-1117.8" font-family="Arial" font-size="14.00">    </text>
<text text-anchor="start" x="415.87" y="-1117.8" font-family="Arial" font-size="14.00" fill="#666666">[BASE TABLE]</text>
<polygon fill="none" stroke="black" points="205.31,-1073.6 205.31,-1104.4 516.24,-1104.4 516.24,-1073.6 205.31,-1073.6"/>
<text text-anchor="start" x="212.31" y="-1085.8" font-family="Arial" font-size="14.00">id </text>
<text text-anchor="start" x="227.09" y="-1085.8" font-family="Arial" font-size="14.00" fill="#666666">[uuid]</text>
<polygon fill="none" stroke="black" points="205.31,-1042.8 205.31,-1073.6 516.24,-1073.6 516.24,-1042.8 205.31,-1042.8"/>
<text text-anchor="start" x="212.31" y="-1055" font-family="Arial" font-size="14.00">chat_id </text>
<text text-anchor="start" x="261.34" y="-1055" font-family="Arial" font-size="14.00" fill="#666666">[uuid]</text>
<polygon fill="none" stroke="black" points="205.31,-1012 205.31,-1042.8 516.24,-1042.8 516.24,-1012 205.31,-1012"/>
<text text-anchor="start" x="212.31" y="-1024.2" font-family="Arial" font-size="14.00">persona_id </text>
<text text-anchor="start" x="285.47" y="-1024.2" font-family="Arial" font-size="14.00" fill="#666666">[uuid]</text>
<polygon fill="none" stroke="black" points="205.31,-981.2 205.31,-1012 516.24,-1012 516.24,-981.2 205.31,-981.2"/>
<text text-anchor="start" x="212.31" y="-993.4" font-family="Arial" font-size="14.00">joined_at </text>
<text text-anchor="start" x="273.02" y="-993.4" font-family="Arial" font-size="14.00" fill="#666666">[timestamp without time zone]</text>
</g>
<!-- public.chat_participants&#45;&gt;public.personas -->
<g id="edge1" class="edge">
<title>public.chat_participants:persona_id&#45;&gt;public.personas:id</title>
<path fill="none" stroke="black" d="M527.5,-1025.8C552.5,-1016.58 532.87,-969.59 516.24,-938 492.18,-892.32 445.23,-916.89 421.2,-871.2 401.09,-832.96 377,-774 420.2,-774"/>
<polygon fill="black" stroke="black" points="527.45,-1025.81 516.87,-1022.9 522.18,-1026.63 517.9,-1027.3 517.9,-1027.3 517.9,-1027.3 522.18,-1026.63 518.26,-1031.79 527.45,-1025.81"/>
<text text-anchor="start" x="142.91" y="-1037.4" font-family="Arial" font-size="10.00">FOREIGN KEY (persona_id) REFERENCES personas(id) ON DELETE CASCADE</text>
</g>
<!-- public.messages -->
<g id="node3" class="node">
<title>public.messages</title>
<polygon fill="#efefef" stroke="none" points="620.16,-1135.2 620.16,-1170.8 889.39,-1170.8 889.39,-1135.2 620.16,-1135.2"/>
<polygon fill="none" stroke="black" points="620.16,-1135.2 620.16,-1170.8 889.39,-1170.8 889.39,-1135.2 620.16,-1135.2"/>
<text text-anchor="start" x="633.79" y="-1148.6" font-family="Arial Bold" font-size="18.00">public.messages</text>
<text text-anchor="start" x="751.26" y="-1148.6" font-family="Arial" font-size="14.00">    </text>
<text text-anchor="start" x="782.38" y="-1148.6" font-family="Arial" font-size="14.00" fill="#666666">[BASE TABLE]</text>
<polygon fill="none" stroke="black" points="620.16,-1104.4 620.16,-1135.2 889.39,-1135.2 889.39,-1104.4 620.16,-1104.4"/>
<text text-anchor="start" x="627.16" y="-1116.6" font-family="Arial" font-size="14.00">id </text>
<text text-anchor="start" x="641.94" y="-1116.6" font-family="Arial" font-size="14.00" fill="#666666">[uuid]</text>
<polygon fill="none" stroke="black" points="620.16,-1073.6 620.16,-1104.4 889.39,-1104.4 889.39,-1073.6 620.16,-1073.6"/>
<text text-anchor="start" x="627.16" y="-1085.8" font-family="Arial" font-size="14.00">chat_id </text>
<text text-anchor="start" x="676.19" y="-1085.8" font-family="Arial" font-size="14.00" fill="#666666">[uuid]</text>
<polygon fill="none" stroke="black" points="620.16,-1042.8 620.16,-1073.6 889.39,-1073.6 889.39,-1042.8 620.16,-1042.8"/>
<text text-anchor="start" x="627.16" y="-1055" font-family="Arial" font-size="14.00">sender_type </text>
<text text-anchor="start" x="708.1" y="-1055" font-family="Arial" font-size="14.00" fill="#666666">[varchar(10)]</text>
<polygon fill="none" stroke="black" points="620.16,-1012 620.16,-1042.8 889.39,-1042.8 889.39,-1012 620.16,-1012"/>
<text text-anchor="start" x="627.16" y="-1024.2" font-family="Arial" font-size="14.00">persona_id </text>
<text text-anchor="start" x="700.32" y="-1024.2" font-family="Arial" font-size="14.00" fill="#666666">[uuid]</text>
<polygon fill="none" stroke="black" points="620.16,-981.2 620.16,-1012 889.39,-1012 889.39,-981.2 620.16,-981.2"/>
<text text-anchor="start" x="627.16" y="-993.4" font-family="Arial" font-size="14.00">content </text>
<text text-anchor="start" x="676.97" y="-993.4" font-family="Arial" font-size="14.00" fill="#666666">[text]</text>
<polygon fill="none" stroke="black" points="620.16,-950.4 620.16,-981.2 889.39,-981.2 889.39,-950.4 620.16,-950.4"/>
<text text-anchor="start" x="627.16" y="-962.6" font-family="Arial" font-size="14.00">created_at </text>
<text text-anchor="start" x="697.2" y="-962.6" font-family="Arial" font-size="14.00" fill="#666666">[timestamp without time zone]</text>
</g>
<!-- public.messages&#45;&gt;public.personas -->
<g id="edge2" class="edge">
<title>public.messages:persona_id&#45;&gt;public.personas:id</title>
<path fill="none" stroke="black" d="M609.04,-1026.32C569.38,-1017 593.62,-949.18 620.16,-907.2 639.74,-876.22 674.73,-902.16 694.34,-871.2 717.46,-834.7 738.55,-774 695.34,-774"/>
<polygon fill="black" stroke="black" points="608.88,-1026.31 618.35,-1031.84 614.18,-1026.87 618.49,-1027.33 618.49,-1027.33 618.49,-1027.33 614.18,-1026.87 619.3,-1022.89 608.88,-1026.31"/>
<text text-anchor="start" x="626.16" y="-1037.4" font-family="Arial" font-size="10.00">FOREIGN KEY (persona_id) REFERENCES personas(id) ON DELETE SET NULL</text>
</g>
</g>
</svg>
