<?xml version="1.0" encoding="UTF-8" standalone="no"?>
<!DOCTYPE svg PUBLIC "-//W3C//DTD SVG 1.1//EN"
 "http://www.w3.org/Graphics/SVG/1.1/DTD/svg11.dtd">
<!-- Generated by graphviz version 12.1.2 (20240928.0832)
 -->
<!-- Title: public.messages Pages: 1 -->
<svg width="1007pt" height="879pt"
 viewBox="0.00 0.00 1006.87 879.20" xmlns="http://www.w3.org/2000/svg" xmlns:xlink="http://www.w3.org/1999/xlink">
<g id="graph0" class="graph" transform="scale(1 1) rotate(0) translate(4 875.2)">
<title>public.messages</title>
<polygon fill="white" stroke="none" points="-4,4 -4,-875.2 1002.87,-875.2 1002.87,4 -4,4"/>
<!-- public.messages -->
<g id="node1" class="node">
<title>public.messages</title>
<polygon fill="#efefef" stroke="none" points="347.86,-789.4 347.86,-825 617.09,-825 617.09,-789.4 347.86,-789.4"/>
<polygon fill="none" stroke="black" points="347.86,-789.4 347.86,-825 617.09,-825 617.09,-789.4 347.86,-789.4"/>
<text text-anchor="start" x="361.49" y="-802.8" font-family="Arial Bold" font-size="18.00">public.messages</text>
<text text-anchor="start" x="478.97" y="-802.8" font-family="Arial" font-size="14.00">    </text>
<text text-anchor="start" x="510.08" y="-802.8" font-family="Arial" font-size="14.00" fill="#666666">[BASE TABLE]</text>
<polygon fill="none" stroke="black" points="347.86,-758.6 347.86,-789.4 617.09,-789.4 617.09,-758.6 347.86,-758.6"/>
<text text-anchor="start" x="354.86" y="-770.8" font-family="Arial" font-size="14.00">id </text>
<text text-anchor="start" x="369.64" y="-770.8" font-family="Arial" font-size="14.00" fill="#666666">[uuid]</text>
<polygon fill="none" stroke="black" points="347.86,-727.8 347.86,-758.6 617.09,-758.6 617.09,-727.8 347.86,-727.8"/>
<text text-anchor="start" x="354.86" y="-740" font-family="Arial" font-size="14.00">chat_id </text>
<text text-anchor="start" x="403.89" y="-740" font-family="Arial" font-size="14.00" fill="#666666">[uuid]</text>
<polygon fill="none" stroke="black" points="347.86,-697 347.86,-727.8 617.09,-727.8 617.09,-697 347.86,-697"/>
<text text-anchor="start" x="354.86" y="-709.2" font-family="Arial" font-size="14.00">sender_type </text>
<text text-anchor="start" x="435.8" y="-709.2" font-family="Arial" font-size="14.00" fill="#666666">[varchar(10)]</text>
<polygon fill="none" stroke="black" points="347.86,-666.2 347.86,-697 617.09,-697 617.09,-666.2 347.86,-666.2"/>
<text text-anchor="start" x="354.86" y="-678.4" font-family="Arial" font-size="14.00">persona_id </text>
<text text-anchor="start" x="428.02" y="-678.4" font-family="Arial" font-size="14.00" fill="#666666">[uuid]</text>
<polygon fill="none" stroke="black" points="347.86,-635.4 347.86,-666.2 617.09,-666.2 617.09,-635.4 347.86,-635.4"/>
<text text-anchor="start" x="354.86" y="-647.6" font-family="Arial" font-size="14.00">content </text>
<text text-anchor="start" x="404.67" y="-647.6" font-family="Arial" font-size="14.00" fill="#666666">[text]</text>
<polygon fill="none" stroke="black" points="347.86,-604.6 347.86,-635.4 617.09,-635.4 617.09,-604.6 347.86,-604.6"/>
<text text-anchor="start" x="354.86" y="-616.8" font-family="Arial" font-size="14.00">created_at </text>
<text text-anchor="start" x="424.9" y="-616.8" font-family="Arial" font-size="14.00" fill="#666666">[timestamp without time zone]</text>
<polygon fill="none" stroke="black" stroke-width="3" points="346.36,-603.1 346.36,-826.5 618.59,-826.5 618.59,-603.1 346.36,-603.1"/>
</g>
<!-- public.chats -->
<g id="node2" class="node">
<title>public.chats</title>
<polygon fill="#efefef" stroke="none" points="156.9,-320.4 156.9,-356 430.04,-356 430.04,-320.4 156.9,-320.4"/>
<polygon fill="none" stroke="black" points="156.9,-320.4 156.9,-356 430.04,-356 430.04,-320.4 156.9,-320.4"/>
<text text-anchor="start" x="187.99" y="-333.8" font-family="Arial Bold" font-size="18.00">public.chats</text>
<text text-anchor="start" x="274.47" y="-333.8" font-family="Arial" font-size="14.00">    </text>
<text text-anchor="start" x="305.58" y="-333.8" font-family="Arial" font-size="14.00" fill="#666666">[BASE TABLE]</text>
<polygon fill="none" stroke="black" points="156.9,-289.6 156.9,-320.4 430.04,-320.4 430.04,-289.6 156.9,-289.6"/>
<text text-anchor="start" x="163.9" y="-301.8" font-family="Arial" font-size="14.00">id </text>
<text text-anchor="start" x="178.69" y="-301.8" font-family="Arial" font-size="14.00" fill="#666666">[uuid]</text>
<polygon fill="none" stroke="black" points="156.9,-258.8 156.9,-289.6 430.04,-289.6 430.04,-258.8 156.9,-258.8"/>
<text text-anchor="start" x="163.9" y="-271" font-family="Arial" font-size="14.00">user_id </text>
<text text-anchor="start" x="213.71" y="-271" font-family="Arial" font-size="14.00" fill="#666666">[uuid]</text>
<polygon fill="none" stroke="black" points="156.9,-228 156.9,-258.8 430.04,-258.8 430.04,-228 156.9,-228"/>
<text text-anchor="start" x="163.9" y="-240.2" font-family="Arial" font-size="14.00">title </text>
<text text-anchor="start" x="189.58" y="-240.2" font-family="Arial" font-size="14.00" fill="#666666">[varchar(200)]</text>
<polygon fill="none" stroke="black" points="156.9,-197.2 156.9,-228 430.04,-228 430.04,-197.2 156.9,-197.2"/>
<text text-anchor="start" x="163.9" y="-209.4" font-family="Arial" font-size="14.00">created_at </text>
<text text-anchor="start" x="233.95" y="-209.4" font-family="Arial" font-size="14.00" fill="#666666">[timestamp without time zone]</text>
<polygon fill="none" stroke="black" points="156.9,-166.4 156.9,-197.2 430.04,-197.2 430.04,-166.4 156.9,-166.4"/>
<text text-anchor="start" x="163.9" y="-178.6" font-family="Arial" font-size="14.00">updated_at </text>
<text text-anchor="start" x="237.86" y="-178.6" font-family="Arial" font-size="14.00" fill="#666666">[timestamp without time zone]</text>
</g>
<!-- public.messages&#45;&gt;public.chats -->
<g id="edge1" class="edge">
<title>public.messages:chat_id&#45;&gt;public.chats:id</title>
<path fill="none" stroke="black" d="M336.79,-742.73C199.2,-729.27 422.56,-429.34 430.04,-399.2 440.14,-358.57 472.91,-305 431.04,-305"/>
<polygon fill="black" stroke="black" points="336.53,-742.72 346.31,-747.68 341.86,-742.97 346.19,-743.17 346.19,-743.17 346.19,-743.17 341.86,-742.97 346.73,-738.69 336.53,-742.72"/>
<text text-anchor="start" x="7" y="-753.2" font-family="Arial" font-size="10.00">FOREIGN KEY (chat_id) REFERENCES chats(id) ON DELETE CASCADE</text>
</g>
<!-- public.personas -->
<g id="node3" class="node">
<title>public.personas</title>
<polygon fill="#efefef" stroke="none" points="534.9,-443.6 534.9,-479.2 808.04,-479.2 808.04,-443.6 534.9,-443.6"/>
<polygon fill="none" stroke="black" points="534.9,-443.6 534.9,-479.2 808.04,-479.2 808.04,-443.6 534.9,-443.6"/>
<text text-anchor="start" x="552.99" y="-457" font-family="Arial Bold" font-size="18.00">public.personas</text>
<text text-anchor="start" x="665.47" y="-457" font-family="Arial" font-size="14.00">    </text>
<text text-anchor="start" x="696.58" y="-457" font-family="Arial" font-size="14.00" fill="#666666">[BASE TABLE]</text>
<polygon fill="none" stroke="black" points="534.9,-412.8 534.9,-443.6 808.04,-443.6 808.04,-412.8 534.9,-412.8"/>
<text text-anchor="start" x="541.9" y="-425" font-family="Arial" font-size="14.00">id </text>
<text text-anchor="start" x="556.69" y="-425" font-family="Arial" font-size="14.00" fill="#666666">[uuid]</text>
<polygon fill="none" stroke="black" points="534.9,-382 534.9,-412.8 808.04,-412.8 808.04,-382 534.9,-382"/>
<text text-anchor="start" x="541.9" y="-394.2" font-family="Arial" font-size="14.00">user_id </text>
<text text-anchor="start" x="591.71" y="-394.2" font-family="Arial" font-size="14.00" fill="#666666">[uuid]</text>
<polygon fill="none" stroke="black" points="534.9,-351.2 534.9,-382 808.04,-382 808.04,-351.2 534.9,-351.2"/>
<text text-anchor="start" x="541.9" y="-363.4" font-family="Arial" font-size="14.00">chat_id </text>
<text text-anchor="start" x="590.94" y="-363.4" font-family="Arial" font-size="14.00" fill="#666666">[uuid]</text>
<polygon fill="none" stroke="black" points="534.9,-320.4 534.9,-351.2 808.04,-351.2 808.04,-320.4 534.9,-320.4"/>
<text text-anchor="start" x="541.9" y="-332.6" font-family="Arial" font-size="14.00">persona_type </text>
<text text-anchor="start" x="630.63" y="-332.6" font-family="Arial" font-size="14.00" fill="#666666">[varchar(10)]</text>
<polygon fill="none" stroke="black" points="534.9,-289.6 534.9,-320.4 808.04,-320.4 808.04,-289.6 534.9,-289.6"/>
<text text-anchor="start" x="541.9" y="-301.8" font-family="Arial" font-size="14.00">preset_key_id </text>
<text text-anchor="start" x="632.96" y="-301.8" font-family="Arial" font-size="14.00" fill="#666666">[varchar(50)]</text>
<polygon fill="none" stroke="black" points="534.9,-258.8 534.9,-289.6 808.04,-289.6 808.04,-258.8 534.9,-258.8"/>
<text text-anchor="start" x="541.9" y="-271" font-family="Arial" font-size="14.00">name </text>
<text text-anchor="start" x="580.81" y="-271" font-family="Arial" font-size="14.00" fill="#666666">[varchar(100)]</text>
<polygon fill="none" stroke="black" points="534.9,-228 534.9,-258.8 808.04,-258.8 808.04,-228 534.9,-228"/>
<text text-anchor="start" x="541.9" y="-240.2" font-family="Arial" font-size="14.00">gender </text>
<text text-anchor="start" x="589.38" y="-240.2" font-family="Arial" font-size="14.00" fill="#666666">[varchar(20)]</text>
<polygon fill="none" stroke="black" points="534.9,-197.2 534.9,-228 808.04,-228 808.04,-197.2 534.9,-197.2"/>
<text text-anchor="start" x="541.9" y="-209.4" font-family="Arial" font-size="14.00">age </text>
<text text-anchor="start" x="569.15" y="-209.4" font-family="Arial" font-size="14.00" fill="#666666">[integer]</text>
<polygon fill="none" stroke="black" points="534.9,-166.4 534.9,-197.2 808.04,-197.2 808.04,-166.4 534.9,-166.4"/>
<text text-anchor="start" x="541.9" y="-178.6" font-family="Arial" font-size="14.00">occupation </text>
<text text-anchor="start" x="613.51" y="-178.6" font-family="Arial" font-size="14.00" fill="#666666">[varchar(100)]</text>
<polygon fill="none" stroke="black" points="534.9,-135.6 534.9,-166.4 808.04,-166.4 808.04,-135.6 534.9,-135.6"/>
<text text-anchor="start" x="541.9" y="-147.8" font-family="Arial" font-size="14.00">annual_income </text>
<text text-anchor="start" x="640.75" y="-147.8" font-family="Arial" font-size="14.00" fill="#666666">[integer]</text>
<polygon fill="none" stroke="black" points="534.9,-104.8 534.9,-135.6 808.04,-135.6 808.04,-104.8 534.9,-104.8"/>
<text text-anchor="start" x="541.9" y="-117" font-family="Arial" font-size="14.00">system_prompt </text>
<text text-anchor="start" x="641.49" y="-117" font-family="Arial" font-size="14.00" fill="#666666">[text]</text>
<polygon fill="none" stroke="black" points="534.9,-74 534.9,-104.8 808.04,-104.8 808.04,-74 534.9,-74"/>
<text text-anchor="start" x="541.9" y="-86.2" font-family="Arial" font-size="14.00">created_at </text>
<text text-anchor="start" x="611.95" y="-86.2" font-family="Arial" font-size="14.00" fill="#666666">[timestamp without time zone]</text>
<polygon fill="none" stroke="black" points="534.9,-43.2 534.9,-74 808.04,-74 808.04,-43.2 534.9,-43.2"/>
<text text-anchor="start" x="541.9" y="-55.4" font-family="Arial" font-size="14.00">updated_at </text>
<text text-anchor="start" x="615.86" y="-55.4" font-family="Arial" font-size="14.00" fill="#666666">[timestamp without time zone]</text>
</g>
<!-- public.messages&#45;&gt;public.personas -->
<g id="edge2" class="edge">
<title>public.messages:persona_id&#45;&gt;public.personas:id</title>
<path fill="none" stroke="black" d="M628.22,-680.55C669.32,-671.15 645.18,-600.99 617.09,-558.4 595.13,-525.11 556.9,-555.66 534.9,-522.4 511.81,-487.48 492.03,-428.2 533.9,-428.2"/>
<polygon fill="black" stroke="black" points="628.37,-680.53 617.96,-677.09 623.06,-681.08 618.76,-681.53 618.76,-681.53 618.76,-681.53 623.06,-681.08 618.89,-686.04 628.37,-680.53"/>
<text text-anchor="start" x="625.09" y="-691.6" font-family="Arial" font-size="10.00">FOREIGN KEY (persona_id) REFERENCES personas(id) ON DELETE SET NULL</text>
</g>
</g>
</svg>
