<?xml version="1.0" encoding="UTF-8" standalone="no"?>
<!DOCTYPE svg PUBLIC "-//W3C//DTD SVG 1.1//EN"
 "http://www.w3.org/Graphics/SVG/1.1/DTD/svg11.dtd">
<!-- Generated by graphviz version 12.1.2 (20240928.0832)
 -->
<!-- Title: public.insights Pages: 1 -->
<svg width="1168pt" height="664pt"
 viewBox="0.00 0.00 1168.44 663.60" xmlns="http://www.w3.org/2000/svg" xmlns:xlink="http://www.w3.org/1999/xlink">
<g id="graph0" class="graph" transform="scale(1 1) rotate(0) translate(4 659.6)">
<title>public.insights</title>
<polygon fill="white" stroke="none" points="-4,4 -4,-659.6 1164.44,-659.6 1164.44,4 -4,4"/>
<!-- public.insights -->
<g id="node1" class="node">
<title>public.insights</title>
<polygon fill="#efefef" stroke="none" points="423.16,-573.8 423.16,-609.4 692.39,-609.4 692.39,-573.8 423.16,-573.8"/>
<polygon fill="none" stroke="black" points="423.16,-573.8 423.16,-609.4 692.39,-609.4 692.39,-573.8 423.16,-573.8"/>
<text text-anchor="start" x="442.78" y="-587.2" font-family="Arial Bold" font-size="18.00">public.insights</text>
<text text-anchor="start" x="548.28" y="-587.2" font-family="Arial" font-size="14.00">    </text>
<text text-anchor="start" x="579.4" y="-587.2" font-family="Arial" font-size="14.00" fill="#666666">[BASE TABLE]</text>
<polygon fill="none" stroke="black" points="423.16,-543 423.16,-573.8 692.39,-573.8 692.39,-543 423.16,-543"/>
<text text-anchor="start" x="430.16" y="-555.2" font-family="Arial" font-size="14.00">id </text>
<text text-anchor="start" x="444.94" y="-555.2" font-family="Arial" font-size="14.00" fill="#666666">[uuid]</text>
<polygon fill="none" stroke="black" points="423.16,-512.2 423.16,-543 692.39,-543 692.39,-512.2 423.16,-512.2"/>
<text text-anchor="start" x="430.16" y="-524.4" font-family="Arial" font-size="14.00">user_id </text>
<text text-anchor="start" x="479.96" y="-524.4" font-family="Arial" font-size="14.00" fill="#666666">[uuid]</text>
<polygon fill="none" stroke="black" points="423.16,-481.4 423.16,-512.2 692.39,-512.2 692.39,-481.4 423.16,-481.4"/>
<text text-anchor="start" x="430.16" y="-493.6" font-family="Arial" font-size="14.00">chat_id </text>
<text text-anchor="start" x="479.19" y="-493.6" font-family="Arial" font-size="14.00" fill="#666666">[uuid]</text>
<polygon fill="none" stroke="black" points="423.16,-450.6 423.16,-481.4 692.39,-481.4 692.39,-450.6 423.16,-450.6"/>
<text text-anchor="start" x="430.16" y="-462.8" font-family="Arial" font-size="14.00">category_id </text>
<text text-anchor="start" x="506.42" y="-462.8" font-family="Arial" font-size="14.00" fill="#666666">[uuid]</text>
<polygon fill="none" stroke="black" points="423.16,-419.8 423.16,-450.6 692.39,-450.6 692.39,-419.8 423.16,-419.8"/>
<text text-anchor="start" x="430.16" y="-432" font-family="Arial" font-size="14.00">content </text>
<text text-anchor="start" x="479.97" y="-432" font-family="Arial" font-size="14.00" fill="#666666">[text]</text>
<polygon fill="none" stroke="black" points="423.16,-389 423.16,-419.8 692.39,-419.8 692.39,-389 423.16,-389"/>
<text text-anchor="start" x="430.16" y="-401.2" font-family="Arial" font-size="14.00">created_at </text>
<text text-anchor="start" x="500.2" y="-401.2" font-family="Arial" font-size="14.00" fill="#666666">[timestamp without time zone]</text>
<polygon fill="none" stroke="black" stroke-width="3" points="421.66,-387.5 421.66,-610.9 693.89,-610.9 693.89,-387.5 421.66,-387.5"/>
</g>
<!-- public.users -->
<g id="node2" class="node">
<title>public.users</title>
<polygon fill="#efefef" stroke="none" points="43.2,-228 43.2,-263.6 316.34,-263.6 316.34,-228 43.2,-228"/>
<polygon fill="none" stroke="black" points="43.2,-228 43.2,-263.6 316.34,-263.6 316.34,-228 43.2,-228"/>
<text text-anchor="start" x="74.28" y="-241.4" font-family="Arial Bold" font-size="18.00">public.users</text>
<text text-anchor="start" x="160.77" y="-241.4" font-family="Arial" font-size="14.00">    </text>
<text text-anchor="start" x="191.89" y="-241.4" font-family="Arial" font-size="14.00" fill="#666666">[BASE TABLE]</text>
<polygon fill="none" stroke="black" points="43.2,-197.2 43.2,-228 316.34,-228 316.34,-197.2 43.2,-197.2"/>
<text text-anchor="start" x="50.2" y="-209.4" font-family="Arial" font-size="14.00">id </text>
<text text-anchor="start" x="64.99" y="-209.4" font-family="Arial" font-size="14.00" fill="#666666">[uuid]</text>
<polygon fill="none" stroke="black" points="43.2,-166.4 43.2,-197.2 316.34,-197.2 316.34,-166.4 43.2,-166.4"/>
<text text-anchor="start" x="50.2" y="-178.6" font-family="Arial" font-size="14.00">firebase_uid </text>
<text text-anchor="start" x="130.37" y="-178.6" font-family="Arial" font-size="14.00" fill="#666666">[varchar(128)]</text>
<polygon fill="none" stroke="black" points="43.2,-135.6 43.2,-166.4 316.34,-166.4 316.34,-135.6 43.2,-135.6"/>
<text text-anchor="start" x="50.2" y="-147.8" font-family="Arial" font-size="14.00">email </text>
<text text-anchor="start" x="87.54" y="-147.8" font-family="Arial" font-size="14.00" fill="#666666">[varchar(255)]</text>
<polygon fill="none" stroke="black" points="43.2,-104.8 43.2,-135.6 316.34,-135.6 316.34,-104.8 43.2,-104.8"/>
<text text-anchor="start" x="50.2" y="-117" font-family="Arial" font-size="14.00">display_name </text>
<text text-anchor="start" x="140.48" y="-117" font-family="Arial" font-size="14.00" fill="#666666">[varchar(100)]</text>
<polygon fill="none" stroke="black" points="43.2,-74 43.2,-104.8 316.34,-104.8 316.34,-74 43.2,-74"/>
<text text-anchor="start" x="50.2" y="-86.2" font-family="Arial" font-size="14.00">created_at </text>
<text text-anchor="start" x="120.25" y="-86.2" font-family="Arial" font-size="14.00" fill="#666666">[timestamp without time zone]</text>
<polygon fill="none" stroke="black" points="43.2,-43.2 43.2,-74 316.34,-74 316.34,-43.2 43.2,-43.2"/>
<text text-anchor="start" x="50.2" y="-55.4" font-family="Arial" font-size="14.00">updated_at </text>
<text text-anchor="start" x="124.16" y="-55.4" font-family="Arial" font-size="14.00" fill="#666666">[timestamp without time zone]</text>
</g>
<!-- public.insights&#45;&gt;public.users -->
<g id="edge1" class="edge">
<title>public.insights:user_id&#45;&gt;public.users:id</title>
<path fill="none" stroke="black" d="M412.15,-525.42C352.28,-497.59 387.51,-212.6 317.34,-212.6"/>
<polygon fill="black" stroke="black" points="412.06,-525.4 420.87,-531.93 417.27,-526.54 421.5,-527.46 421.5,-527.46 421.5,-527.46 417.27,-526.54 422.79,-523.13 412.06,-525.4"/>
<text text-anchor="start" x="81.2" y="-537.6" font-family="Arial" font-size="10.00">FOREIGN KEY (user_id) REFERENCES users(id) ON DELETE CASCADE</text>
</g>
<!-- public.chats -->
<g id="node3" class="node">
<title>public.chats</title>
<polygon fill="#efefef" stroke="none" points="421.2,-212.6 421.2,-248.2 694.34,-248.2 694.34,-212.6 421.2,-212.6"/>
<polygon fill="none" stroke="black" points="421.2,-212.6 421.2,-248.2 694.34,-248.2 694.34,-212.6 421.2,-212.6"/>
<text text-anchor="start" x="452.29" y="-226" font-family="Arial Bold" font-size="18.00">public.chats</text>
<text text-anchor="start" x="538.76" y="-226" font-family="Arial" font-size="14.00">    </text>
<text text-anchor="start" x="569.88" y="-226" font-family="Arial" font-size="14.00" fill="#666666">[BASE TABLE]</text>
<polygon fill="none" stroke="black" points="421.2,-181.8 421.2,-212.6 694.34,-212.6 694.34,-181.8 421.2,-181.8"/>
<text text-anchor="start" x="428.2" y="-194" font-family="Arial" font-size="14.00">id </text>
<text text-anchor="start" x="442.99" y="-194" font-family="Arial" font-size="14.00" fill="#666666">[uuid]</text>
<polygon fill="none" stroke="black" points="421.2,-151 421.2,-181.8 694.34,-181.8 694.34,-151 421.2,-151"/>
<text text-anchor="start" x="428.2" y="-163.2" font-family="Arial" font-size="14.00">user_id </text>
<text text-anchor="start" x="478.01" y="-163.2" font-family="Arial" font-size="14.00" fill="#666666">[uuid]</text>
<polygon fill="none" stroke="black" points="421.2,-120.2 421.2,-151 694.34,-151 694.34,-120.2 421.2,-120.2"/>
<text text-anchor="start" x="428.2" y="-132.4" font-family="Arial" font-size="14.00">title </text>
<text text-anchor="start" x="453.88" y="-132.4" font-family="Arial" font-size="14.00" fill="#666666">[varchar(200)]</text>
<polygon fill="none" stroke="black" points="421.2,-89.4 421.2,-120.2 694.34,-120.2 694.34,-89.4 421.2,-89.4"/>
<text text-anchor="start" x="428.2" y="-101.6" font-family="Arial" font-size="14.00">created_at </text>
<text text-anchor="start" x="498.25" y="-101.6" font-family="Arial" font-size="14.00" fill="#666666">[timestamp without time zone]</text>
<polygon fill="none" stroke="black" points="421.2,-58.6 421.2,-89.4 694.34,-89.4 694.34,-58.6 421.2,-58.6"/>
<text text-anchor="start" x="428.2" y="-70.8" font-family="Arial" font-size="14.00">updated_at </text>
<text text-anchor="start" x="502.16" y="-70.8" font-family="Arial" font-size="14.00" fill="#666666">[timestamp without time zone]</text>
</g>
<!-- public.insights&#45;&gt;public.chats -->
<g id="edge2" class="edge">
<title>public.insights:chat_id&#45;&gt;public.chats:id</title>
<path fill="none" stroke="black" d="M703.38,-494.39C759.98,-466.03 758.41,-197.2 695.34,-197.2"/>
<polygon fill="black" stroke="black" points="703.43,-494.38 692.66,-492.35 698.25,-495.63 694.04,-496.64 694.04,-496.64 694.04,-496.64 698.25,-495.63 694.77,-501.1 703.43,-494.38"/>
<text text-anchor="start" x="700.39" y="-506.8" font-family="Arial" font-size="10.00">FOREIGN KEY (chat_id) REFERENCES chats(id) ON DELETE SET NULL</text>
</g>
<!-- public.insight_categories -->
<g id="node4" class="node">
<title>public.insight_categories</title>
<polygon fill="#efefef" stroke="none" points="798.3,-197.2 798.3,-232.8 1117.24,-232.8 1117.24,-197.2 798.3,-197.2"/>
<polygon fill="none" stroke="black" points="798.3,-197.2 798.3,-232.8 1117.24,-232.8 1117.24,-197.2 798.3,-197.2"/>
<text text-anchor="start" x="805.3" y="-210.6" font-family="Arial Bold" font-size="18.00">public.insight_categories</text>
<text text-anchor="start" x="985.76" y="-210.6" font-family="Arial" font-size="14.00">    </text>
<text text-anchor="start" x="1016.87" y="-210.6" font-family="Arial" font-size="14.00" fill="#666666">[BASE TABLE]</text>
<polygon fill="none" stroke="black" points="798.3,-166.4 798.3,-197.2 1117.24,-197.2 1117.24,-166.4 798.3,-166.4"/>
<text text-anchor="start" x="805.3" y="-178.6" font-family="Arial" font-size="14.00">id </text>
<text text-anchor="start" x="820.08" y="-178.6" font-family="Arial" font-size="14.00" fill="#666666">[uuid]</text>
<polygon fill="none" stroke="black" points="798.3,-135.6 798.3,-166.4 1117.24,-166.4 1117.24,-135.6 798.3,-135.6"/>
<text text-anchor="start" x="805.3" y="-147.8" font-family="Arial" font-size="14.00">category_key </text>
<text text-anchor="start" x="892.46" y="-147.8" font-family="Arial" font-size="14.00" fill="#666666">[varchar(50)]</text>
<polygon fill="none" stroke="black" points="798.3,-104.8 798.3,-135.6 1117.24,-135.6 1117.24,-104.8 798.3,-104.8"/>
<text text-anchor="start" x="805.3" y="-117" font-family="Arial" font-size="14.00">display_name </text>
<text text-anchor="start" x="895.57" y="-117" font-family="Arial" font-size="14.00" fill="#666666">[varchar(50)]</text>
<polygon fill="none" stroke="black" points="798.3,-74 798.3,-104.8 1117.24,-104.8 1117.24,-74 798.3,-74"/>
<text text-anchor="start" x="805.3" y="-86.2" font-family="Arial" font-size="14.00">description </text>
<text text-anchor="start" x="876.89" y="-86.2" font-family="Arial" font-size="14.00" fill="#666666">[text]</text>
</g>
<!-- public.insights&#45;&gt;public.insight_categories -->
<g id="edge3" class="edge">
<title>public.insights:category_id&#45;&gt;public.insight_categories:id</title>
<path fill="none" stroke="black" d="M703.24,-463.71C757.68,-436.82 733.6,-181.8 797.3,-181.8"/>
<polygon fill="black" stroke="black" points="703.46,-463.66 692.7,-461.54 698.26,-464.87 694.04,-465.85 694.04,-465.85 694.04,-465.85 698.26,-464.87 694.73,-470.31 703.46,-463.66"/>
<text text-anchor="start" x="700.39" y="-476" font-family="Arial" font-size="10.00">FOREIGN KEY (category_id) REFERENCES insight_categories(id)</text>
</g>
</g>
</svg>
