<?xml version="1.0" encoding="UTF-8" standalone="no"?>
<!DOCTYPE svg PUBLIC "-//W3C//DTD SVG 1.1//EN"
 "http://www.w3.org/Graphics/SVG/1.1/DTD/svg11.dtd">
<!-- Generated by graphviz version 12.1.2 (20240928.0832)
 -->
<!-- Title: public.insight_categories Pages: 1 -->
<svg width="662pt" height="602pt"
 viewBox="0.00 0.00 661.72 602.00" xmlns="http://www.w3.org/2000/svg" xmlns:xlink="http://www.w3.org/1999/xlink">
<g id="graph0" class="graph" transform="scale(1 1) rotate(0) translate(4 598)">
<title>public.insight_categories</title>
<polygon fill="white" stroke="none" points="-4,4 -4,-598 657.72,-598 657.72,4 -4,4"/>
<!-- public.insight_categories -->
<g id="node1" class="node">
<title>public.insight_categories</title>
<polygon fill="#efefef" stroke="none" points="46.2,-169.4 46.2,-205 365.15,-205 365.15,-169.4 46.2,-169.4"/>
<polygon fill="none" stroke="black" points="46.2,-169.4 46.2,-205 365.15,-205 365.15,-169.4 46.2,-169.4"/>
<text text-anchor="start" x="53.2" y="-182.8" font-family="Arial Bold" font-size="18.00">public.insight_categories</text>
<text text-anchor="start" x="233.66" y="-182.8" font-family="Arial" font-size="14.00">    </text>
<text text-anchor="start" x="264.77" y="-182.8" font-family="Arial" font-size="14.00" fill="#666666">[BASE TABLE]</text>
<polygon fill="none" stroke="black" points="46.2,-138.6 46.2,-169.4 365.15,-169.4 365.15,-138.6 46.2,-138.6"/>
<text text-anchor="start" x="53.2" y="-150.8" font-family="Arial" font-size="14.00">id </text>
<text text-anchor="start" x="67.99" y="-150.8" font-family="Arial" font-size="14.00" fill="#666666">[uuid]</text>
<polygon fill="none" stroke="black" points="46.2,-107.8 46.2,-138.6 365.15,-138.6 365.15,-107.8 46.2,-107.8"/>
<text text-anchor="start" x="53.2" y="-120" font-family="Arial" font-size="14.00">category_key </text>
<text text-anchor="start" x="140.36" y="-120" font-family="Arial" font-size="14.00" fill="#666666">[varchar(50)]</text>
<polygon fill="none" stroke="black" points="46.2,-77 46.2,-107.8 365.15,-107.8 365.15,-77 46.2,-77"/>
<text text-anchor="start" x="53.2" y="-89.2" font-family="Arial" font-size="14.00">display_name </text>
<text text-anchor="start" x="143.48" y="-89.2" font-family="Arial" font-size="14.00" fill="#666666">[varchar(50)]</text>
<polygon fill="none" stroke="black" points="46.2,-46.2 46.2,-77 365.15,-77 365.15,-46.2 46.2,-46.2"/>
<text text-anchor="start" x="53.2" y="-58.4" font-family="Arial" font-size="14.00">description </text>
<text text-anchor="start" x="124.79" y="-58.4" font-family="Arial" font-size="14.00" fill="#666666">[text]</text>
<polygon fill="none" stroke="black" stroke-width="3" points="44.7,-44.7 44.7,-206.5 366.65,-206.5 366.65,-44.7 44.7,-44.7"/>
</g>
<!-- public.insights -->
<g id="node2" class="node">
<title>public.insights</title>
<polygon fill="#efefef" stroke="none" points="71.06,-515.2 71.06,-550.8 340.29,-550.8 340.29,-515.2 71.06,-515.2"/>
<polygon fill="none" stroke="black" points="71.06,-515.2 71.06,-550.8 340.29,-550.8 340.29,-515.2 71.06,-515.2"/>
<text text-anchor="start" x="90.68" y="-528.6" font-family="Arial Bold" font-size="18.00">public.insights</text>
<text text-anchor="start" x="196.18" y="-528.6" font-family="Arial" font-size="14.00">    </text>
<text text-anchor="start" x="227.3" y="-528.6" font-family="Arial" font-size="14.00" fill="#666666">[BASE TABLE]</text>
<polygon fill="none" stroke="black" points="71.06,-484.4 71.06,-515.2 340.29,-515.2 340.29,-484.4 71.06,-484.4"/>
<text text-anchor="start" x="78.06" y="-496.6" font-family="Arial" font-size="14.00">id </text>
<text text-anchor="start" x="92.84" y="-496.6" font-family="Arial" font-size="14.00" fill="#666666">[uuid]</text>
<polygon fill="none" stroke="black" points="71.06,-453.6 71.06,-484.4 340.29,-484.4 340.29,-453.6 71.06,-453.6"/>
<text text-anchor="start" x="78.06" y="-465.8" font-family="Arial" font-size="14.00">user_id </text>
<text text-anchor="start" x="127.86" y="-465.8" font-family="Arial" font-size="14.00" fill="#666666">[uuid]</text>
<polygon fill="none" stroke="black" points="71.06,-422.8 71.06,-453.6 340.29,-453.6 340.29,-422.8 71.06,-422.8"/>
<text text-anchor="start" x="78.06" y="-435" font-family="Arial" font-size="14.00">chat_id </text>
<text text-anchor="start" x="127.09" y="-435" font-family="Arial" font-size="14.00" fill="#666666">[uuid]</text>
<polygon fill="none" stroke="black" points="71.06,-392 71.06,-422.8 340.29,-422.8 340.29,-392 71.06,-392"/>
<text text-anchor="start" x="78.06" y="-404.2" font-family="Arial" font-size="14.00">category_id </text>
<text text-anchor="start" x="154.32" y="-404.2" font-family="Arial" font-size="14.00" fill="#666666">[uuid]</text>
<polygon fill="none" stroke="black" points="71.06,-361.2 71.06,-392 340.29,-392 340.29,-361.2 71.06,-361.2"/>
<text text-anchor="start" x="78.06" y="-373.4" font-family="Arial" font-size="14.00">content </text>
<text text-anchor="start" x="127.87" y="-373.4" font-family="Arial" font-size="14.00" fill="#666666">[text]</text>
<polygon fill="none" stroke="black" points="71.06,-330.4 71.06,-361.2 340.29,-361.2 340.29,-330.4 71.06,-330.4"/>
<text text-anchor="start" x="78.06" y="-342.6" font-family="Arial" font-size="14.00">created_at </text>
<text text-anchor="start" x="148.1" y="-342.6" font-family="Arial" font-size="14.00" fill="#666666">[timestamp without time zone]</text>
</g>
<!-- public.insights&#45;&gt;public.insight_categories -->
<g id="edge1" class="edge">
<title>public.insights:category_id&#45;&gt;public.insight_categories:id</title>
<path fill="none" stroke="black" d="M351.21,-404.73C400.58,-377.64 419.3,-154 366.15,-154"/>
<polygon fill="black" stroke="black" points="351.27,-404.71 340.44,-402.97 346.12,-406.1 341.94,-407.23 341.94,-407.23 341.94,-407.23 346.12,-406.1 342.78,-411.66 351.27,-404.71"/>
<text text-anchor="start" x="348.29" y="-417.4" font-family="Arial" font-size="10.00">FOREIGN KEY (category_id) REFERENCES insight_categories(id)</text>
</g>
</g>
</svg>
