<?xml version="1.0" encoding="UTF-8" standalone="no"?>
<!DOCTYPE svg PUBLIC "-//W3C//DTD SVG 1.1//EN"
 "http://www.w3.org/Graphics/SVG/1.1/DTD/svg11.dtd">
<!-- Generated by graphviz version 12.1.2 (20240928.0832)
 -->
<!-- Title: public.preset_keys Pages: 1 -->
<svg width="625pt" height="818pt"
 viewBox="0.00 0.00 624.65 817.60" xmlns="http://www.w3.org/2000/svg" xmlns:xlink="http://www.w3.org/1999/xlink">
<g id="graph0" class="graph" transform="scale(1 1) rotate(0) translate(4 813.6)">
<title>public.preset_keys</title>
<polygon fill="white" stroke="none" points="-4,4 -4,-813.6 620.65,-813.6 620.65,4 -4,4"/>
<!-- public.preset_keys -->
<g id="node1" class="node">
<title>public.preset_keys</title>
<polygon fill="#efefef" stroke="none" points="46.2,-169.4 46.2,-205 319.34,-205 319.34,-169.4 46.2,-169.4"/>
<polygon fill="none" stroke="black" points="46.2,-169.4 46.2,-205 319.34,-205 319.34,-169.4 46.2,-169.4"/>
<text text-anchor="start" x="53.3" y="-182.8" font-family="Arial Bold" font-size="18.00">public.preset_keys</text>
<text text-anchor="start" x="187.76" y="-182.8" font-family="Arial" font-size="14.00">    </text>
<text text-anchor="start" x="218.88" y="-182.8" font-family="Arial" font-size="14.00" fill="#666666">[BASE TABLE]</text>
<polygon fill="none" stroke="black" points="46.2,-138.6 46.2,-169.4 319.34,-169.4 319.34,-138.6 46.2,-138.6"/>
<text text-anchor="start" x="53.2" y="-150.8" font-family="Arial" font-size="14.00">id </text>
<text text-anchor="start" x="67.99" y="-150.8" font-family="Arial" font-size="14.00" fill="#666666">[varchar(50)]</text>
<polygon fill="none" stroke="black" points="46.2,-107.8 46.2,-138.6 319.34,-138.6 319.34,-107.8 46.2,-107.8"/>
<text text-anchor="start" x="53.2" y="-120" font-family="Arial" font-size="14.00">label </text>
<text text-anchor="start" x="86.67" y="-120" font-family="Arial" font-size="14.00" fill="#666666">[varchar(100)]</text>
<polygon fill="none" stroke="black" points="46.2,-77 46.2,-107.8 319.34,-107.8 319.34,-77 46.2,-77"/>
<text text-anchor="start" x="53.2" y="-89.2" font-family="Arial" font-size="14.00">created_at </text>
<text text-anchor="start" x="123.25" y="-89.2" font-family="Arial" font-size="14.00" fill="#666666">[timestamp without time zone]</text>
<polygon fill="none" stroke="black" points="46.2,-46.2 46.2,-77 319.34,-77 319.34,-46.2 46.2,-46.2"/>
<text text-anchor="start" x="53.2" y="-58.4" font-family="Arial" font-size="14.00">updated_at </text>
<text text-anchor="start" x="127.16" y="-58.4" font-family="Arial" font-size="14.00" fill="#666666">[timestamp without time zone]</text>
<polygon fill="none" stroke="black" stroke-width="3" points="44.7,-44.7 44.7,-206.5 320.84,-206.5 320.84,-44.7 44.7,-44.7"/>
</g>
<!-- public.personas -->
<g id="node2" class="node">
<title>public.personas</title>
<polygon fill="#efefef" stroke="none" points="46.2,-730.8 46.2,-766.4 319.34,-766.4 319.34,-730.8 46.2,-730.8"/>
<polygon fill="none" stroke="black" points="46.2,-730.8 46.2,-766.4 319.34,-766.4 319.34,-730.8 46.2,-730.8"/>
<text text-anchor="start" x="64.29" y="-744.2" font-family="Arial Bold" font-size="18.00">public.personas</text>
<text text-anchor="start" x="176.76" y="-744.2" font-family="Arial" font-size="14.00">    </text>
<text text-anchor="start" x="207.88" y="-744.2" font-family="Arial" font-size="14.00" fill="#666666">[BASE TABLE]</text>
<polygon fill="none" stroke="black" points="46.2,-700 46.2,-730.8 319.34,-730.8 319.34,-700 46.2,-700"/>
<text text-anchor="start" x="53.2" y="-712.2" font-family="Arial" font-size="14.00">id </text>
<text text-anchor="start" x="67.99" y="-712.2" font-family="Arial" font-size="14.00" fill="#666666">[uuid]</text>
<polygon fill="none" stroke="black" points="46.2,-669.2 46.2,-700 319.34,-700 319.34,-669.2 46.2,-669.2"/>
<text text-anchor="start" x="53.2" y="-681.4" font-family="Arial" font-size="14.00">user_id </text>
<text text-anchor="start" x="103.01" y="-681.4" font-family="Arial" font-size="14.00" fill="#666666">[uuid]</text>
<polygon fill="none" stroke="black" points="46.2,-638.4 46.2,-669.2 319.34,-669.2 319.34,-638.4 46.2,-638.4"/>
<text text-anchor="start" x="53.2" y="-650.6" font-family="Arial" font-size="14.00">chat_id </text>
<text text-anchor="start" x="102.23" y="-650.6" font-family="Arial" font-size="14.00" fill="#666666">[uuid]</text>
<polygon fill="none" stroke="black" points="46.2,-607.6 46.2,-638.4 319.34,-638.4 319.34,-607.6 46.2,-607.6"/>
<text text-anchor="start" x="53.2" y="-619.8" font-family="Arial" font-size="14.00">persona_type </text>
<text text-anchor="start" x="141.93" y="-619.8" font-family="Arial" font-size="14.00" fill="#666666">[varchar(10)]</text>
<polygon fill="none" stroke="black" points="46.2,-576.8 46.2,-607.6 319.34,-607.6 319.34,-576.8 46.2,-576.8"/>
<text text-anchor="start" x="53.2" y="-589" font-family="Arial" font-size="14.00">preset_key_id </text>
<text text-anchor="start" x="144.25" y="-589" font-family="Arial" font-size="14.00" fill="#666666">[varchar(50)]</text>
<polygon fill="none" stroke="black" points="46.2,-546 46.2,-576.8 319.34,-576.8 319.34,-546 46.2,-546"/>
<text text-anchor="start" x="53.2" y="-558.2" font-family="Arial" font-size="14.00">name </text>
<text text-anchor="start" x="92.11" y="-558.2" font-family="Arial" font-size="14.00" fill="#666666">[varchar(100)]</text>
<polygon fill="none" stroke="black" points="46.2,-515.2 46.2,-546 319.34,-546 319.34,-515.2 46.2,-515.2"/>
<text text-anchor="start" x="53.2" y="-527.4" font-family="Arial" font-size="14.00">gender </text>
<text text-anchor="start" x="100.68" y="-527.4" font-family="Arial" font-size="14.00" fill="#666666">[varchar(20)]</text>
<polygon fill="none" stroke="black" points="46.2,-484.4 46.2,-515.2 319.34,-515.2 319.34,-484.4 46.2,-484.4"/>
<text text-anchor="start" x="53.2" y="-496.6" font-family="Arial" font-size="14.00">age </text>
<text text-anchor="start" x="80.45" y="-496.6" font-family="Arial" font-size="14.00" fill="#666666">[integer]</text>
<polygon fill="none" stroke="black" points="46.2,-453.6 46.2,-484.4 319.34,-484.4 319.34,-453.6 46.2,-453.6"/>
<text text-anchor="start" x="53.2" y="-465.8" font-family="Arial" font-size="14.00">occupation </text>
<text text-anchor="start" x="124.81" y="-465.8" font-family="Arial" font-size="14.00" fill="#666666">[varchar(100)]</text>
<polygon fill="none" stroke="black" points="46.2,-422.8 46.2,-453.6 319.34,-453.6 319.34,-422.8 46.2,-422.8"/>
<text text-anchor="start" x="53.2" y="-435" font-family="Arial" font-size="14.00">annual_income </text>
<text text-anchor="start" x="152.05" y="-435" font-family="Arial" font-size="14.00" fill="#666666">[integer]</text>
<polygon fill="none" stroke="black" points="46.2,-392 46.2,-422.8 319.34,-422.8 319.34,-392 46.2,-392"/>
<text text-anchor="start" x="53.2" y="-404.2" font-family="Arial" font-size="14.00">system_prompt </text>
<text text-anchor="start" x="152.79" y="-404.2" font-family="Arial" font-size="14.00" fill="#666666">[text]</text>
<polygon fill="none" stroke="black" points="46.2,-361.2 46.2,-392 319.34,-392 319.34,-361.2 46.2,-361.2"/>
<text text-anchor="start" x="53.2" y="-373.4" font-family="Arial" font-size="14.00">created_at </text>
<text text-anchor="start" x="123.25" y="-373.4" font-family="Arial" font-size="14.00" fill="#666666">[timestamp without time zone]</text>
<polygon fill="none" stroke="black" points="46.2,-330.4 46.2,-361.2 319.34,-361.2 319.34,-330.4 46.2,-330.4"/>
<text text-anchor="start" x="53.2" y="-342.6" font-family="Arial" font-size="14.00">updated_at </text>
<text text-anchor="start" x="127.16" y="-342.6" font-family="Arial" font-size="14.00" fill="#666666">[timestamp without time zone]</text>
</g>
<!-- public.personas&#45;&gt;public.preset_keys -->
<g id="edge1" class="edge">
<title>public.personas:preset_key_id&#45;&gt;public.preset_keys:id</title>
<path fill="none" stroke="black" d="M330.52,-590.53C417.59,-561.11 414.2,-154 320.34,-154"/>
<polygon fill="black" stroke="black" points="330.54,-590.52 319.94,-587.71 325.28,-591.39 321,-592.09 321,-592.09 321,-592.09 325.28,-591.39 321.4,-596.59 330.54,-590.52"/>
<text text-anchor="start" x="327.34" y="-602.2" font-family="Arial" font-size="10.00">FOREIGN KEY (preset_key_id) REFERENCES preset_keys(id)</text>
</g>
</g>
</svg>
