<?xml version="1.0" encoding="UTF-8" standalone="no"?>
<!DOCTYPE svg PUBLIC "-//W3C//DTD SVG 1.1//EN"
 "http://www.w3.org/Graphics/SVG/1.1/DTD/svg11.dtd">
<!-- Generated by graphviz version 12.1.2 (20240928.0832)
 -->
<!-- Title: public.chat_participants Pages: 1 -->
<svg width="1049pt" height="818pt"
 viewBox="0.00 0.00 1049.12 817.60" xmlns="http://www.w3.org/2000/svg" xmlns:xlink="http://www.w3.org/1999/xlink">
<g id="graph0" class="graph" transform="scale(1 1) rotate(0) translate(4 813.6)">
<title>public.chat_participants</title>
<polygon fill="white" stroke="none" points="-4,4 -4,-813.6 1045.12,-813.6 1045.12,4 -4,4"/>
<!-- public.chat_participants -->
<g id="node1" class="node">
<title>public.chat_participants</title>
<polygon fill="#efefef" stroke="none" points="347.86,-727.8 347.86,-763.4 658.79,-763.4 658.79,-727.8 347.86,-727.8"/>
<polygon fill="none" stroke="black" points="347.86,-727.8 347.86,-763.4 658.79,-763.4 658.79,-727.8 347.86,-727.8"/>
<text text-anchor="start" x="354.86" y="-741.2" font-family="Arial Bold" font-size="18.00">public.chat_participants</text>
<text text-anchor="start" x="527.3" y="-741.2" font-family="Arial" font-size="14.00">    </text>
<text text-anchor="start" x="558.42" y="-741.2" font-family="Arial" font-size="14.00" fill="#666666">[BASE TABLE]</text>
<polygon fill="none" stroke="black" points="347.86,-697 347.86,-727.8 658.79,-727.8 658.79,-697 347.86,-697"/>
<text text-anchor="start" x="354.86" y="-709.2" font-family="Arial" font-size="14.00">id </text>
<text text-anchor="start" x="369.64" y="-709.2" font-family="Arial" font-size="14.00" fill="#666666">[uuid]</text>
<polygon fill="none" stroke="black" points="347.86,-666.2 347.86,-697 658.79,-697 658.79,-666.2 347.86,-666.2"/>
<text text-anchor="start" x="354.86" y="-678.4" font-family="Arial" font-size="14.00">chat_id </text>
<text text-anchor="start" x="403.89" y="-678.4" font-family="Arial" font-size="14.00" fill="#666666">[uuid]</text>
<polygon fill="none" stroke="black" points="347.86,-635.4 347.86,-666.2 658.79,-666.2 658.79,-635.4 347.86,-635.4"/>
<text text-anchor="start" x="354.86" y="-647.6" font-family="Arial" font-size="14.00">persona_id </text>
<text text-anchor="start" x="428.02" y="-647.6" font-family="Arial" font-size="14.00" fill="#666666">[uuid]</text>
<polygon fill="none" stroke="black" points="347.86,-604.6 347.86,-635.4 658.79,-635.4 658.79,-604.6 347.86,-604.6"/>
<text text-anchor="start" x="354.86" y="-616.8" font-family="Arial" font-size="14.00">joined_at </text>
<text text-anchor="start" x="415.57" y="-616.8" font-family="Arial" font-size="14.00" fill="#666666">[timestamp without time zone]</text>
<polygon fill="none" stroke="black" stroke-width="3" points="346.36,-603.1 346.36,-764.9 660.29,-764.9 660.29,-603.1 346.36,-603.1"/>
</g>
<!-- public.chats -->
<g id="node2" class="node">
<title>public.chats</title>
<polygon fill="#efefef" stroke="none" points="177.75,-320.4 177.75,-356 450.89,-356 450.89,-320.4 177.75,-320.4"/>
<polygon fill="none" stroke="black" points="177.75,-320.4 177.75,-356 450.89,-356 450.89,-320.4 177.75,-320.4"/>
<text text-anchor="start" x="208.84" y="-333.8" font-family="Arial Bold" font-size="18.00">public.chats</text>
<text text-anchor="start" x="295.31" y="-333.8" font-family="Arial" font-size="14.00">    </text>
<text text-anchor="start" x="326.43" y="-333.8" font-family="Arial" font-size="14.00" fill="#666666">[BASE TABLE]</text>
<polygon fill="none" stroke="black" points="177.75,-289.6 177.75,-320.4 450.89,-320.4 450.89,-289.6 177.75,-289.6"/>
<text text-anchor="start" x="184.75" y="-301.8" font-family="Arial" font-size="14.00">id </text>
<text text-anchor="start" x="199.54" y="-301.8" font-family="Arial" font-size="14.00" fill="#666666">[uuid]</text>
<polygon fill="none" stroke="black" points="177.75,-258.8 177.75,-289.6 450.89,-289.6 450.89,-258.8 177.75,-258.8"/>
<text text-anchor="start" x="184.75" y="-271" font-family="Arial" font-size="14.00">user_id </text>
<text text-anchor="start" x="234.56" y="-271" font-family="Arial" font-size="14.00" fill="#666666">[uuid]</text>
<polygon fill="none" stroke="black" points="177.75,-228 177.75,-258.8 450.89,-258.8 450.89,-228 177.75,-228"/>
<text text-anchor="start" x="184.75" y="-240.2" font-family="Arial" font-size="14.00">title </text>
<text text-anchor="start" x="210.43" y="-240.2" font-family="Arial" font-size="14.00" fill="#666666">[varchar(200)]</text>
<polygon fill="none" stroke="black" points="177.75,-197.2 177.75,-228 450.89,-228 450.89,-197.2 177.75,-197.2"/>
<text text-anchor="start" x="184.75" y="-209.4" font-family="Arial" font-size="14.00">created_at </text>
<text text-anchor="start" x="254.8" y="-209.4" font-family="Arial" font-size="14.00" fill="#666666">[timestamp without time zone]</text>
<polygon fill="none" stroke="black" points="177.75,-166.4 177.75,-197.2 450.89,-197.2 450.89,-166.4 177.75,-166.4"/>
<text text-anchor="start" x="184.75" y="-178.6" font-family="Arial" font-size="14.00">updated_at </text>
<text text-anchor="start" x="258.71" y="-178.6" font-family="Arial" font-size="14.00" fill="#666666">[timestamp without time zone]</text>
</g>
<!-- public.chat_participants&#45;&gt;public.chats -->
<g id="edge1" class="edge">
<title>public.chat_participants:chat_id&#45;&gt;public.chats:id</title>
<path fill="none" stroke="black" d="M336.67,-680.58C297.61,-671.74 333.24,-607.16 347.86,-558.4 372.06,-477.67 426.59,-479.9 450.89,-399.2 462.97,-359.11 493.76,-305 451.89,-305"/>
<polygon fill="black" stroke="black" points="336.57,-680.57 346.08,-686.04 341.88,-681.1 346.19,-681.53 346.19,-681.53 346.19,-681.53 341.88,-681.1 346.97,-677.09 336.57,-680.57"/>
<text text-anchor="start" x="7" y="-691.6" font-family="Arial" font-size="10.00">FOREIGN KEY (chat_id) REFERENCES chats(id) ON DELETE CASCADE</text>
</g>
<!-- public.personas -->
<g id="node3" class="node">
<title>public.personas</title>
<polygon fill="#efefef" stroke="none" points="555.75,-443.6 555.75,-479.2 828.89,-479.2 828.89,-443.6 555.75,-443.6"/>
<polygon fill="none" stroke="black" points="555.75,-443.6 555.75,-479.2 828.89,-479.2 828.89,-443.6 555.75,-443.6"/>
<text text-anchor="start" x="573.84" y="-457" font-family="Arial Bold" font-size="18.00">public.personas</text>
<text text-anchor="start" x="686.31" y="-457" font-family="Arial" font-size="14.00">    </text>
<text text-anchor="start" x="717.43" y="-457" font-family="Arial" font-size="14.00" fill="#666666">[BASE TABLE]</text>
<polygon fill="none" stroke="black" points="555.75,-412.8 555.75,-443.6 828.89,-443.6 828.89,-412.8 555.75,-412.8"/>
<text text-anchor="start" x="562.75" y="-425" font-family="Arial" font-size="14.00">id </text>
<text text-anchor="start" x="577.54" y="-425" font-family="Arial" font-size="14.00" fill="#666666">[uuid]</text>
<polygon fill="none" stroke="black" points="555.75,-382 555.75,-412.8 828.89,-412.8 828.89,-382 555.75,-382"/>
<text text-anchor="start" x="562.75" y="-394.2" font-family="Arial" font-size="14.00">user_id </text>
<text text-anchor="start" x="612.56" y="-394.2" font-family="Arial" font-size="14.00" fill="#666666">[uuid]</text>
<polygon fill="none" stroke="black" points="555.75,-351.2 555.75,-382 828.89,-382 828.89,-351.2 555.75,-351.2"/>
<text text-anchor="start" x="562.75" y="-363.4" font-family="Arial" font-size="14.00">chat_id </text>
<text text-anchor="start" x="611.78" y="-363.4" font-family="Arial" font-size="14.00" fill="#666666">[uuid]</text>
<polygon fill="none" stroke="black" points="555.75,-320.4 555.75,-351.2 828.89,-351.2 828.89,-320.4 555.75,-320.4"/>
<text text-anchor="start" x="562.75" y="-332.6" font-family="Arial" font-size="14.00">persona_type </text>
<text text-anchor="start" x="651.48" y="-332.6" font-family="Arial" font-size="14.00" fill="#666666">[varchar(10)]</text>
<polygon fill="none" stroke="black" points="555.75,-289.6 555.75,-320.4 828.89,-320.4 828.89,-289.6 555.75,-289.6"/>
<text text-anchor="start" x="562.75" y="-301.8" font-family="Arial" font-size="14.00">preset_key_id </text>
<text text-anchor="start" x="653.8" y="-301.8" font-family="Arial" font-size="14.00" fill="#666666">[varchar(50)]</text>
<polygon fill="none" stroke="black" points="555.75,-258.8 555.75,-289.6 828.89,-289.6 828.89,-258.8 555.75,-258.8"/>
<text text-anchor="start" x="562.75" y="-271" font-family="Arial" font-size="14.00">name </text>
<text text-anchor="start" x="601.66" y="-271" font-family="Arial" font-size="14.00" fill="#666666">[varchar(100)]</text>
<polygon fill="none" stroke="black" points="555.75,-228 555.75,-258.8 828.89,-258.8 828.89,-228 555.75,-228"/>
<text text-anchor="start" x="562.75" y="-240.2" font-family="Arial" font-size="14.00">gender </text>
<text text-anchor="start" x="610.23" y="-240.2" font-family="Arial" font-size="14.00" fill="#666666">[varchar(20)]</text>
<polygon fill="none" stroke="black" points="555.75,-197.2 555.75,-228 828.89,-228 828.89,-197.2 555.75,-197.2"/>
<text text-anchor="start" x="562.75" y="-209.4" font-family="Arial" font-size="14.00">age </text>
<text text-anchor="start" x="590" y="-209.4" font-family="Arial" font-size="14.00" fill="#666666">[integer]</text>
<polygon fill="none" stroke="black" points="555.75,-166.4 555.75,-197.2 828.89,-197.2 828.89,-166.4 555.75,-166.4"/>
<text text-anchor="start" x="562.75" y="-178.6" font-family="Arial" font-size="14.00">occupation </text>
<text text-anchor="start" x="634.36" y="-178.6" font-family="Arial" font-size="14.00" fill="#666666">[varchar(100)]</text>
<polygon fill="none" stroke="black" points="555.75,-135.6 555.75,-166.4 828.89,-166.4 828.89,-135.6 555.75,-135.6"/>
<text text-anchor="start" x="562.75" y="-147.8" font-family="Arial" font-size="14.00">annual_income </text>
<text text-anchor="start" x="661.6" y="-147.8" font-family="Arial" font-size="14.00" fill="#666666">[integer]</text>
<polygon fill="none" stroke="black" points="555.75,-104.8 555.75,-135.6 828.89,-135.6 828.89,-104.8 555.75,-104.8"/>
<text text-anchor="start" x="562.75" y="-117" font-family="Arial" font-size="14.00">system_prompt </text>
<text text-anchor="start" x="662.34" y="-117" font-family="Arial" font-size="14.00" fill="#666666">[text]</text>
<polygon fill="none" stroke="black" points="555.75,-74 555.75,-104.8 828.89,-104.8 828.89,-74 555.75,-74"/>
<text text-anchor="start" x="562.75" y="-86.2" font-family="Arial" font-size="14.00">created_at </text>
<text text-anchor="start" x="632.8" y="-86.2" font-family="Arial" font-size="14.00" fill="#666666">[timestamp without time zone]</text>
<polygon fill="none" stroke="black" points="555.75,-43.2 555.75,-74 828.89,-74 828.89,-43.2 555.75,-43.2"/>
<text text-anchor="start" x="562.75" y="-55.4" font-family="Arial" font-size="14.00">updated_at </text>
<text text-anchor="start" x="636.71" y="-55.4" font-family="Arial" font-size="14.00" fill="#666666">[timestamp without time zone]</text>
</g>
<!-- public.chat_participants&#45;&gt;public.personas -->
<g id="edge2" class="edge">
<title>public.chat_participants:persona_id&#45;&gt;public.personas:id</title>
<path fill="none" stroke="black" d="M669.82,-649.31C697.41,-639.96 680.5,-588.63 658.79,-558.4 630.49,-519 584.04,-561.81 555.75,-522.4 531.33,-488.39 512.88,-428.2 554.75,-428.2"/>
<polygon fill="black" stroke="black" points="670.01,-649.29 659.46,-646.3 664.73,-650.07 660.45,-650.7 660.45,-650.7 660.45,-650.7 664.73,-650.07 660.78,-655.2 670.01,-649.29"/>
<text text-anchor="start" x="666.79" y="-660.8" font-family="Arial" font-size="10.00">FOREIGN KEY (persona_id) REFERENCES personas(id) ON DELETE CASCADE</text>
</g>
</g>
</svg>
