<?xml version="1.0" encoding="UTF-8" standalone="no"?>
<!DOCTYPE svg PUBLIC "-//W3C//DTD SVG 1.1//EN"
 "http://www.w3.org/Graphics/SVG/1.1/DTD/svg11.dtd">
<!-- Generated by graphviz version 12.1.2 (20240928.0832)
 -->
<!-- Title: public.users Pages: 1 -->
<svg width="1154pt" height="879pt"
 viewBox="0.00 0.00 1154.12 879.20" xmlns="http://www.w3.org/2000/svg" xmlns:xlink="http://www.w3.org/1999/xlink">
<g id="graph0" class="graph" transform="scale(1 1) rotate(0) translate(4 875.2)">
<title>public.users</title>
<polygon fill="white" stroke="none" points="-4,4 -4,-875.2 1150.12,-875.2 1150.12,4 -4,4"/>
<!-- public.users -->
<g id="node1" class="node">
<title>public.users</title>
<polygon fill="#efefef" stroke="none" points="421.2,-231 421.2,-266.6 694.34,-266.6 694.34,-231 421.2,-231"/>
<polygon fill="none" stroke="black" points="421.2,-231 421.2,-266.6 694.34,-266.6 694.34,-231 421.2,-231"/>
<text text-anchor="start" x="452.28" y="-244.4" font-family="Arial Bold" font-size="18.00">public.users</text>
<text text-anchor="start" x="538.77" y="-244.4" font-family="Arial" font-size="14.00">    </text>
<text text-anchor="start" x="569.89" y="-244.4" font-family="Arial" font-size="14.00" fill="#666666">[BASE TABLE]</text>
<polygon fill="none" stroke="black" points="421.2,-200.2 421.2,-231 694.34,-231 694.34,-200.2 421.2,-200.2"/>
<text text-anchor="start" x="428.2" y="-212.4" font-family="Arial" font-size="14.00">id </text>
<text text-anchor="start" x="442.99" y="-212.4" font-family="Arial" font-size="14.00" fill="#666666">[uuid]</text>
<polygon fill="none" stroke="black" points="421.2,-169.4 421.2,-200.2 694.34,-200.2 694.34,-169.4 421.2,-169.4"/>
<text text-anchor="start" x="428.2" y="-181.6" font-family="Arial" font-size="14.00">firebase_uid </text>
<text text-anchor="start" x="508.37" y="-181.6" font-family="Arial" font-size="14.00" fill="#666666">[varchar(128)]</text>
<polygon fill="none" stroke="black" points="421.2,-138.6 421.2,-169.4 694.34,-169.4 694.34,-138.6 421.2,-138.6"/>
<text text-anchor="start" x="428.2" y="-150.8" font-family="Arial" font-size="14.00">email </text>
<text text-anchor="start" x="465.54" y="-150.8" font-family="Arial" font-size="14.00" fill="#666666">[varchar(255)]</text>
<polygon fill="none" stroke="black" points="421.2,-107.8 421.2,-138.6 694.34,-138.6 694.34,-107.8 421.2,-107.8"/>
<text text-anchor="start" x="428.2" y="-120" font-family="Arial" font-size="14.00">display_name </text>
<text text-anchor="start" x="518.48" y="-120" font-family="Arial" font-size="14.00" fill="#666666">[varchar(100)]</text>
<polygon fill="none" stroke="black" points="421.2,-77 421.2,-107.8 694.34,-107.8 694.34,-77 421.2,-77"/>
<text text-anchor="start" x="428.2" y="-89.2" font-family="Arial" font-size="14.00">created_at </text>
<text text-anchor="start" x="498.25" y="-89.2" font-family="Arial" font-size="14.00" fill="#666666">[timestamp without time zone]</text>
<polygon fill="none" stroke="black" points="421.2,-46.2 421.2,-77 694.34,-77 694.34,-46.2 421.2,-46.2"/>
<text text-anchor="start" x="428.2" y="-58.4" font-family="Arial" font-size="14.00">updated_at </text>
<text text-anchor="start" x="502.16" y="-58.4" font-family="Arial" font-size="14.00" fill="#666666">[timestamp without time zone]</text>
<polygon fill="none" stroke="black" stroke-width="3" points="419.7,-44.7 419.7,-268.1 695.84,-268.1 695.84,-44.7 419.7,-44.7"/>
</g>
<!-- public.personas -->
<g id="node2" class="node">
<title>public.personas</title>
<polygon fill="#efefef" stroke="none" points="43.2,-792.4 43.2,-828 316.34,-828 316.34,-792.4 43.2,-792.4"/>
<polygon fill="none" stroke="black" points="43.2,-792.4 43.2,-828 316.34,-828 316.34,-792.4 43.2,-792.4"/>
<text text-anchor="start" x="61.29" y="-805.8" font-family="Arial Bold" font-size="18.00">public.personas</text>
<text text-anchor="start" x="173.76" y="-805.8" font-family="Arial" font-size="14.00">    </text>
<text text-anchor="start" x="204.88" y="-805.8" font-family="Arial" font-size="14.00" fill="#666666">[BASE TABLE]</text>
<polygon fill="none" stroke="black" points="43.2,-761.6 43.2,-792.4 316.34,-792.4 316.34,-761.6 43.2,-761.6"/>
<text text-anchor="start" x="50.2" y="-773.8" font-family="Arial" font-size="14.00">id </text>
<text text-anchor="start" x="64.99" y="-773.8" font-family="Arial" font-size="14.00" fill="#666666">[uuid]</text>
<polygon fill="none" stroke="black" points="43.2,-730.8 43.2,-761.6 316.34,-761.6 316.34,-730.8 43.2,-730.8"/>
<text text-anchor="start" x="50.2" y="-743" font-family="Arial" font-size="14.00">user_id </text>
<text text-anchor="start" x="100.01" y="-743" font-family="Arial" font-size="14.00" fill="#666666">[uuid]</text>
<polygon fill="none" stroke="black" points="43.2,-700 43.2,-730.8 316.34,-730.8 316.34,-700 43.2,-700"/>
<text text-anchor="start" x="50.2" y="-712.2" font-family="Arial" font-size="14.00">chat_id </text>
<text text-anchor="start" x="99.23" y="-712.2" font-family="Arial" font-size="14.00" fill="#666666">[uuid]</text>
<polygon fill="none" stroke="black" points="43.2,-669.2 43.2,-700 316.34,-700 316.34,-669.2 43.2,-669.2"/>
<text text-anchor="start" x="50.2" y="-681.4" font-family="Arial" font-size="14.00">persona_type </text>
<text text-anchor="start" x="138.93" y="-681.4" font-family="Arial" font-size="14.00" fill="#666666">[varchar(10)]</text>
<polygon fill="none" stroke="black" points="43.2,-638.4 43.2,-669.2 316.34,-669.2 316.34,-638.4 43.2,-638.4"/>
<text text-anchor="start" x="50.2" y="-650.6" font-family="Arial" font-size="14.00">preset_key_id </text>
<text text-anchor="start" x="141.25" y="-650.6" font-family="Arial" font-size="14.00" fill="#666666">[varchar(50)]</text>
<polygon fill="none" stroke="black" points="43.2,-607.6 43.2,-638.4 316.34,-638.4 316.34,-607.6 43.2,-607.6"/>
<text text-anchor="start" x="50.2" y="-619.8" font-family="Arial" font-size="14.00">name </text>
<text text-anchor="start" x="89.11" y="-619.8" font-family="Arial" font-size="14.00" fill="#666666">[varchar(100)]</text>
<polygon fill="none" stroke="black" points="43.2,-576.8 43.2,-607.6 316.34,-607.6 316.34,-576.8 43.2,-576.8"/>
<text text-anchor="start" x="50.2" y="-589" font-family="Arial" font-size="14.00">gender </text>
<text text-anchor="start" x="97.68" y="-589" font-family="Arial" font-size="14.00" fill="#666666">[varchar(20)]</text>
<polygon fill="none" stroke="black" points="43.2,-546 43.2,-576.8 316.34,-576.8 316.34,-546 43.2,-546"/>
<text text-anchor="start" x="50.2" y="-558.2" font-family="Arial" font-size="14.00">age </text>
<text text-anchor="start" x="77.45" y="-558.2" font-family="Arial" font-size="14.00" fill="#666666">[integer]</text>
<polygon fill="none" stroke="black" points="43.2,-515.2 43.2,-546 316.34,-546 316.34,-515.2 43.2,-515.2"/>
<text text-anchor="start" x="50.2" y="-527.4" font-family="Arial" font-size="14.00">occupation </text>
<text text-anchor="start" x="121.81" y="-527.4" font-family="Arial" font-size="14.00" fill="#666666">[varchar(100)]</text>
<polygon fill="none" stroke="black" points="43.2,-484.4 43.2,-515.2 316.34,-515.2 316.34,-484.4 43.2,-484.4"/>
<text text-anchor="start" x="50.2" y="-496.6" font-family="Arial" font-size="14.00">annual_income </text>
<text text-anchor="start" x="149.05" y="-496.6" font-family="Arial" font-size="14.00" fill="#666666">[integer]</text>
<polygon fill="none" stroke="black" points="43.2,-453.6 43.2,-484.4 316.34,-484.4 316.34,-453.6 43.2,-453.6"/>
<text text-anchor="start" x="50.2" y="-465.8" font-family="Arial" font-size="14.00">system_prompt </text>
<text text-anchor="start" x="149.79" y="-465.8" font-family="Arial" font-size="14.00" fill="#666666">[text]</text>
<polygon fill="none" stroke="black" points="43.2,-422.8 43.2,-453.6 316.34,-453.6 316.34,-422.8 43.2,-422.8"/>
<text text-anchor="start" x="50.2" y="-435" font-family="Arial" font-size="14.00">created_at </text>
<text text-anchor="start" x="120.25" y="-435" font-family="Arial" font-size="14.00" fill="#666666">[timestamp without time zone]</text>
<polygon fill="none" stroke="black" points="43.2,-392 43.2,-422.8 316.34,-422.8 316.34,-392 43.2,-392"/>
<text text-anchor="start" x="50.2" y="-404.2" font-family="Arial" font-size="14.00">updated_at </text>
<text text-anchor="start" x="124.16" y="-404.2" font-family="Arial" font-size="14.00" fill="#666666">[timestamp without time zone]</text>
</g>
<!-- public.personas&#45;&gt;public.users -->
<g id="edge1" class="edge">
<title>public.personas:user_id&#45;&gt;public.users:id</title>
<path fill="none" stroke="black" d="M327.57,-744.67C401.64,-721.06 347.76,-431.57 368.77,-348.8 384.38,-287.29 356.74,-215.6 420.2,-215.6"/>
<polygon fill="black" stroke="black" points="327.56,-744.67 317.01,-741.7 322.29,-745.46 318.01,-746.1 318.01,-746.1 318.01,-746.1 322.29,-745.46 318.34,-750.6 327.56,-744.67"/>
<text text-anchor="start" x="324.34" y="-756.2" font-family="Arial" font-size="10.00">FOREIGN KEY (user_id) REFERENCES users(id) ON DELETE CASCADE</text>
</g>
<!-- public.chats -->
<g id="node3" class="node">
<title>public.chats</title>
<polygon fill="#efefef" stroke="none" points="421.2,-669.2 421.2,-704.8 694.34,-704.8 694.34,-669.2 421.2,-669.2"/>
<polygon fill="none" stroke="black" points="421.2,-669.2 421.2,-704.8 694.34,-704.8 694.34,-669.2 421.2,-669.2"/>
<text text-anchor="start" x="452.29" y="-682.6" font-family="Arial Bold" font-size="18.00">public.chats</text>
<text text-anchor="start" x="538.76" y="-682.6" font-family="Arial" font-size="14.00">    </text>
<text text-anchor="start" x="569.88" y="-682.6" font-family="Arial" font-size="14.00" fill="#666666">[BASE TABLE]</text>
<polygon fill="none" stroke="black" points="421.2,-638.4 421.2,-669.2 694.34,-669.2 694.34,-638.4 421.2,-638.4"/>
<text text-anchor="start" x="428.2" y="-650.6" font-family="Arial" font-size="14.00">id </text>
<text text-anchor="start" x="442.99" y="-650.6" font-family="Arial" font-size="14.00" fill="#666666">[uuid]</text>
<polygon fill="none" stroke="black" points="421.2,-607.6 421.2,-638.4 694.34,-638.4 694.34,-607.6 421.2,-607.6"/>
<text text-anchor="start" x="428.2" y="-619.8" font-family="Arial" font-size="14.00">user_id </text>
<text text-anchor="start" x="478.01" y="-619.8" font-family="Arial" font-size="14.00" fill="#666666">[uuid]</text>
<polygon fill="none" stroke="black" points="421.2,-576.8 421.2,-607.6 694.34,-607.6 694.34,-576.8 421.2,-576.8"/>
<text text-anchor="start" x="428.2" y="-589" font-family="Arial" font-size="14.00">title </text>
<text text-anchor="start" x="453.88" y="-589" font-family="Arial" font-size="14.00" fill="#666666">[varchar(200)]</text>
<polygon fill="none" stroke="black" points="421.2,-546 421.2,-576.8 694.34,-576.8 694.34,-546 421.2,-546"/>
<text text-anchor="start" x="428.2" y="-558.2" font-family="Arial" font-size="14.00">created_at </text>
<text text-anchor="start" x="498.25" y="-558.2" font-family="Arial" font-size="14.00" fill="#666666">[timestamp without time zone]</text>
<polygon fill="none" stroke="black" points="421.2,-515.2 421.2,-546 694.34,-546 694.34,-515.2 421.2,-515.2"/>
<text text-anchor="start" x="428.2" y="-527.4" font-family="Arial" font-size="14.00">updated_at </text>
<text text-anchor="start" x="502.16" y="-527.4" font-family="Arial" font-size="14.00" fill="#666666">[timestamp without time zone]</text>
</g>
<!-- public.chats&#45;&gt;public.users -->
<g id="edge2" class="edge">
<title>public.chats:user_id&#45;&gt;public.users:id</title>
<path fill="none" stroke="black" d="M703.99,-617.55C740.4,-569.2 737.52,-215.6 695.34,-215.6"/>
<polygon fill="black" stroke="black" points="704.09,-617.49 693.23,-619.01 699.57,-620.33 695.91,-622.64 695.91,-622.64 695.91,-622.64 699.57,-620.33 698.03,-626.63 704.09,-617.49"/>
<text text-anchor="start" x="354.38" y="-633" font-family="Arial" font-size="10.00">FOREIGN KEY (user_id) REFERENCES users(id) ON DELETE CASCADE</text>
</g>
<!-- public.insights -->
<g id="node4" class="node">
<title>public.insights</title>
<polygon fill="#efefef" stroke="none" points="799.16,-684.6 799.16,-720.2 1068.39,-720.2 1068.39,-684.6 799.16,-684.6"/>
<polygon fill="none" stroke="black" points="799.16,-684.6 799.16,-720.2 1068.39,-720.2 1068.39,-684.6 799.16,-684.6"/>
<text text-anchor="start" x="818.78" y="-698" font-family="Arial Bold" font-size="18.00">public.insights</text>
<text text-anchor="start" x="924.28" y="-698" font-family="Arial" font-size="14.00">    </text>
<text text-anchor="start" x="955.4" y="-698" font-family="Arial" font-size="14.00" fill="#666666">[BASE TABLE]</text>
<polygon fill="none" stroke="black" points="799.16,-653.8 799.16,-684.6 1068.39,-684.6 1068.39,-653.8 799.16,-653.8"/>
<text text-anchor="start" x="806.16" y="-666" font-family="Arial" font-size="14.00">id </text>
<text text-anchor="start" x="820.94" y="-666" font-family="Arial" font-size="14.00" fill="#666666">[uuid]</text>
<polygon fill="none" stroke="black" points="799.16,-623 799.16,-653.8 1068.39,-653.8 1068.39,-623 799.16,-623"/>
<text text-anchor="start" x="806.16" y="-635.2" font-family="Arial" font-size="14.00">user_id </text>
<text text-anchor="start" x="855.96" y="-635.2" font-family="Arial" font-size="14.00" fill="#666666">[uuid]</text>
<polygon fill="none" stroke="black" points="799.16,-592.2 799.16,-623 1068.39,-623 1068.39,-592.2 799.16,-592.2"/>
<text text-anchor="start" x="806.16" y="-604.4" font-family="Arial" font-size="14.00">chat_id </text>
<text text-anchor="start" x="855.19" y="-604.4" font-family="Arial" font-size="14.00" fill="#666666">[uuid]</text>
<polygon fill="none" stroke="black" points="799.16,-561.4 799.16,-592.2 1068.39,-592.2 1068.39,-561.4 799.16,-561.4"/>
<text text-anchor="start" x="806.16" y="-573.6" font-family="Arial" font-size="14.00">category_id </text>
<text text-anchor="start" x="882.42" y="-573.6" font-family="Arial" font-size="14.00" fill="#666666">[uuid]</text>
<polygon fill="none" stroke="black" points="799.16,-530.6 799.16,-561.4 1068.39,-561.4 1068.39,-530.6 799.16,-530.6"/>
<text text-anchor="start" x="806.16" y="-542.8" font-family="Arial" font-size="14.00">content </text>
<text text-anchor="start" x="855.97" y="-542.8" font-family="Arial" font-size="14.00" fill="#666666">[text]</text>
<polygon fill="none" stroke="black" points="799.16,-499.8 799.16,-530.6 1068.39,-530.6 1068.39,-499.8 799.16,-499.8"/>
<text text-anchor="start" x="806.16" y="-512" font-family="Arial" font-size="14.00">created_at </text>
<text text-anchor="start" x="876.2" y="-512" font-family="Arial" font-size="14.00" fill="#666666">[timestamp without time zone]</text>
</g>
<!-- public.insights&#45;&gt;public.users -->
<g id="edge3" class="edge">
<title>public.insights:user_id&#45;&gt;public.users:id</title>
<path fill="none" stroke="black" d="M787.95,-636.29C736.21,-613.25 763.34,-408.19 746.77,-348.8 729.72,-287.67 758.8,-215.6 695.34,-215.6"/>
<polygon fill="black" stroke="black" points="788.03,-636.31 796.92,-642.74 793.26,-637.39 797.5,-638.26 797.5,-638.26 797.5,-638.26 793.26,-637.39 798.74,-633.93 788.03,-636.31"/>
<text text-anchor="start" x="805.16" y="-648.4" font-family="Arial" font-size="10.00">FOREIGN KEY (user_id) REFERENCES users(id) ON DELETE CASCADE</text>
</g>
</g>
</svg>
