<?xml version="1.0" encoding="UTF-8" standalone="no"?>
<!DOCTYPE svg PUBLIC "-//W3C//DTD SVG 1.1//EN"
 "http://www.w3.org/Graphics/SVG/1.1/DTD/svg11.dtd">
<!-- Generated by graphviz version 12.1.2 (20240928.0832)
 -->
<!-- Title: app Pages: 1 -->
<svg width="1342pt" height="1528pt"
 viewBox="0.00 0.00 1341.93 1528.00" xmlns="http://www.w3.org/2000/svg" xmlns:xlink="http://www.w3.org/1999/xlink">
<g id="graph0" class="graph" transform="scale(1 1) rotate(0) translate(4 1524)">
<title>app</title>
<polygon fill="white" stroke="none" points="-4,4 -4,-1524 1337.93,-1524 1337.93,4 -4,4"/>
<!-- public.users -->
<g id="node1" class="node">
<title>public.users</title>
<polygon fill="#efefef" stroke="none" points="523.3,-228 523.3,-263.6 796.45,-263.6 796.45,-228 523.3,-228"/>
<polygon fill="none" stroke="black" points="523.3,-228 523.3,-263.6 796.45,-263.6 796.45,-228 523.3,-228"/>
<text text-anchor="start" x="554.39" y="-241.4" font-family="Arial Bold" font-size="18.00">public.users</text>
<text text-anchor="start" x="640.87" y="-241.4" font-family="Arial" font-size="14.00">    </text>
<text text-anchor="start" x="671.99" y="-241.4" font-family="Arial" font-size="14.00" fill="#666666">[BASE TABLE]</text>
<polygon fill="none" stroke="black" points="523.3,-197.2 523.3,-228 796.45,-228 796.45,-197.2 523.3,-197.2"/>
<text text-anchor="start" x="530.3" y="-209.4" font-family="Arial" font-size="14.00">id </text>
<text text-anchor="start" x="545.09" y="-209.4" font-family="Arial" font-size="14.00" fill="#666666">[uuid]</text>
<polygon fill="none" stroke="black" points="523.3,-166.4 523.3,-197.2 796.45,-197.2 796.45,-166.4 523.3,-166.4"/>
<text text-anchor="start" x="530.3" y="-178.6" font-family="Arial" font-size="14.00">firebase_uid </text>
<text text-anchor="start" x="610.47" y="-178.6" font-family="Arial" font-size="14.00" fill="#666666">[varchar(128)]</text>
<polygon fill="none" stroke="black" points="523.3,-135.6 523.3,-166.4 796.45,-166.4 796.45,-135.6 523.3,-135.6"/>
<text text-anchor="start" x="530.3" y="-147.8" font-family="Arial" font-size="14.00">email </text>
<text text-anchor="start" x="567.65" y="-147.8" font-family="Arial" font-size="14.00" fill="#666666">[varchar(255)]</text>
<polygon fill="none" stroke="black" points="523.3,-104.8 523.3,-135.6 796.45,-135.6 796.45,-104.8 523.3,-104.8"/>
<text text-anchor="start" x="530.3" y="-117" font-family="Arial" font-size="14.00">display_name </text>
<text text-anchor="start" x="620.58" y="-117" font-family="Arial" font-size="14.00" fill="#666666">[varchar(100)]</text>
<polygon fill="none" stroke="black" points="523.3,-74 523.3,-104.8 796.45,-104.8 796.45,-74 523.3,-74"/>
<text text-anchor="start" x="530.3" y="-86.2" font-family="Arial" font-size="14.00">created_at </text>
<text text-anchor="start" x="600.35" y="-86.2" font-family="Arial" font-size="14.00" fill="#666666">[timestamp without time zone]</text>
<polygon fill="none" stroke="black" points="523.3,-43.2 523.3,-74 796.45,-74 796.45,-43.2 523.3,-43.2"/>
<text text-anchor="start" x="530.3" y="-55.4" font-family="Arial" font-size="14.00">updated_at </text>
<text text-anchor="start" x="604.26" y="-55.4" font-family="Arial" font-size="14.00" fill="#666666">[timestamp without time zone]</text>
</g>
<!-- public.preset_keys -->
<g id="node2" class="node">
<title>public.preset_keys</title>
<polygon fill="#efefef" stroke="none" points="107.3,-524.6 107.3,-560.2 380.45,-560.2 380.45,-524.6 107.3,-524.6"/>
<polygon fill="none" stroke="black" points="107.3,-524.6 107.3,-560.2 380.45,-560.2 380.45,-524.6 107.3,-524.6"/>
<text text-anchor="start" x="114.4" y="-538" font-family="Arial Bold" font-size="18.00">public.preset_keys</text>
<text text-anchor="start" x="248.86" y="-538" font-family="Arial" font-size="14.00">    </text>
<text text-anchor="start" x="279.98" y="-538" font-family="Arial" font-size="14.00" fill="#666666">[BASE TABLE]</text>
<polygon fill="none" stroke="black" points="107.3,-493.8 107.3,-524.6 380.45,-524.6 380.45,-493.8 107.3,-493.8"/>
<text text-anchor="start" x="114.3" y="-506" font-family="Arial" font-size="14.00">id </text>
<text text-anchor="start" x="129.09" y="-506" font-family="Arial" font-size="14.00" fill="#666666">[varchar(50)]</text>
<polygon fill="none" stroke="black" points="107.3,-463 107.3,-493.8 380.45,-493.8 380.45,-463 107.3,-463"/>
<text text-anchor="start" x="114.3" y="-475.2" font-family="Arial" font-size="14.00">label </text>
<text text-anchor="start" x="147.77" y="-475.2" font-family="Arial" font-size="14.00" fill="#666666">[varchar(100)]</text>
<polygon fill="none" stroke="black" points="107.3,-432.2 107.3,-463 380.45,-463 380.45,-432.2 107.3,-432.2"/>
<text text-anchor="start" x="114.3" y="-444.4" font-family="Arial" font-size="14.00">created_at </text>
<text text-anchor="start" x="184.35" y="-444.4" font-family="Arial" font-size="14.00" fill="#666666">[timestamp without time zone]</text>
<polygon fill="none" stroke="black" points="107.3,-401.4 107.3,-432.2 380.45,-432.2 380.45,-401.4 107.3,-401.4"/>
<text text-anchor="start" x="114.3" y="-413.6" font-family="Arial" font-size="14.00">updated_at </text>
<text text-anchor="start" x="188.26" y="-413.6" font-family="Arial" font-size="14.00" fill="#666666">[timestamp without time zone]</text>
</g>
<!-- public.personas -->
<g id="node3" class="node">
<title>public.personas</title>
<polygon fill="#efefef" stroke="none" points="297.3,-1098.4 297.3,-1134 570.45,-1134 570.45,-1098.4 297.3,-1098.4"/>
<polygon fill="none" stroke="black" points="297.3,-1098.4 297.3,-1134 570.45,-1134 570.45,-1098.4 297.3,-1098.4"/>
<text text-anchor="start" x="315.4" y="-1111.8" font-family="Arial Bold" font-size="18.00">public.personas</text>
<text text-anchor="start" x="427.87" y="-1111.8" font-family="Arial" font-size="14.00">    </text>
<text text-anchor="start" x="458.99" y="-1111.8" font-family="Arial" font-size="14.00" fill="#666666">[BASE TABLE]</text>
<polygon fill="none" stroke="black" points="297.3,-1067.6 297.3,-1098.4 570.45,-1098.4 570.45,-1067.6 297.3,-1067.6"/>
<text text-anchor="start" x="304.3" y="-1079.8" font-family="Arial" font-size="14.00">id </text>
<text text-anchor="start" x="319.09" y="-1079.8" font-family="Arial" font-size="14.00" fill="#666666">[uuid]</text>
<polygon fill="none" stroke="black" points="297.3,-1036.8 297.3,-1067.6 570.45,-1067.6 570.45,-1036.8 297.3,-1036.8"/>
<text text-anchor="start" x="304.3" y="-1049" font-family="Arial" font-size="14.00">user_id </text>
<text text-anchor="start" x="354.11" y="-1049" font-family="Arial" font-size="14.00" fill="#666666">[uuid]</text>
<polygon fill="none" stroke="black" points="297.3,-1006 297.3,-1036.8 570.45,-1036.8 570.45,-1006 297.3,-1006"/>
<text text-anchor="start" x="304.3" y="-1018.2" font-family="Arial" font-size="14.00">chat_id </text>
<text text-anchor="start" x="353.34" y="-1018.2" font-family="Arial" font-size="14.00" fill="#666666">[uuid]</text>
<polygon fill="none" stroke="black" points="297.3,-975.2 297.3,-1006 570.45,-1006 570.45,-975.2 297.3,-975.2"/>
<text text-anchor="start" x="304.3" y="-987.4" font-family="Arial" font-size="14.00">persona_type </text>
<text text-anchor="start" x="393.04" y="-987.4" font-family="Arial" font-size="14.00" fill="#666666">[varchar(10)]</text>
<polygon fill="none" stroke="black" points="297.3,-944.4 297.3,-975.2 570.45,-975.2 570.45,-944.4 297.3,-944.4"/>
<text text-anchor="start" x="304.3" y="-956.6" font-family="Arial" font-size="14.00">preset_key_id </text>
<text text-anchor="start" x="395.36" y="-956.6" font-family="Arial" font-size="14.00" fill="#666666">[varchar(50)]</text>
<polygon fill="none" stroke="black" points="297.3,-913.6 297.3,-944.4 570.45,-944.4 570.45,-913.6 297.3,-913.6"/>
<text text-anchor="start" x="304.3" y="-925.8" font-family="Arial" font-size="14.00">name </text>
<text text-anchor="start" x="343.21" y="-925.8" font-family="Arial" font-size="14.00" fill="#666666">[varchar(100)]</text>
<polygon fill="none" stroke="black" points="297.3,-882.8 297.3,-913.6 570.45,-913.6 570.45,-882.8 297.3,-882.8"/>
<text text-anchor="start" x="304.3" y="-895" font-family="Arial" font-size="14.00">gender </text>
<text text-anchor="start" x="351.79" y="-895" font-family="Arial" font-size="14.00" fill="#666666">[varchar(20)]</text>
<polygon fill="none" stroke="black" points="297.3,-852 297.3,-882.8 570.45,-882.8 570.45,-852 297.3,-852"/>
<text text-anchor="start" x="304.3" y="-864.2" font-family="Arial" font-size="14.00">age </text>
<text text-anchor="start" x="331.55" y="-864.2" font-family="Arial" font-size="14.00" fill="#666666">[integer]</text>
<polygon fill="none" stroke="black" points="297.3,-821.2 297.3,-852 570.45,-852 570.45,-821.2 297.3,-821.2"/>
<text text-anchor="start" x="304.3" y="-833.4" font-family="Arial" font-size="14.00">occupation </text>
<text text-anchor="start" x="375.91" y="-833.4" font-family="Arial" font-size="14.00" fill="#666666">[varchar(100)]</text>
<polygon fill="none" stroke="black" points="297.3,-790.4 297.3,-821.2 570.45,-821.2 570.45,-790.4 297.3,-790.4"/>
<text text-anchor="start" x="304.3" y="-802.6" font-family="Arial" font-size="14.00">annual_income </text>
<text text-anchor="start" x="403.15" y="-802.6" font-family="Arial" font-size="14.00" fill="#666666">[integer]</text>
<polygon fill="none" stroke="black" points="297.3,-759.6 297.3,-790.4 570.45,-790.4 570.45,-759.6 297.3,-759.6"/>
<text text-anchor="start" x="304.3" y="-771.8" font-family="Arial" font-size="14.00">system_prompt </text>
<text text-anchor="start" x="403.89" y="-771.8" font-family="Arial" font-size="14.00" fill="#666666">[text]</text>
<polygon fill="none" stroke="black" points="297.3,-728.8 297.3,-759.6 570.45,-759.6 570.45,-728.8 297.3,-728.8"/>
<text text-anchor="start" x="304.3" y="-741" font-family="Arial" font-size="14.00">created_at </text>
<text text-anchor="start" x="374.35" y="-741" font-family="Arial" font-size="14.00" fill="#666666">[timestamp without time zone]</text>
<polygon fill="none" stroke="black" points="297.3,-698 297.3,-728.8 570.45,-728.8 570.45,-698 297.3,-698"/>
<text text-anchor="start" x="304.3" y="-710.2" font-family="Arial" font-size="14.00">updated_at </text>
<text text-anchor="start" x="378.26" y="-710.2" font-family="Arial" font-size="14.00" fill="#666666">[timestamp without time zone]</text>
</g>
<!-- public.personas&#45;&gt;public.users -->
<g id="edge1" class="edge">
<title>public.personas:user_id&#45;&gt;public.users:id</title>
<path fill="none" stroke="black" d="M581.68,-1050.6C656.58,-1025.95 619.19,-724.06 570.45,-654.8 543.37,-616.32 497.91,-657.32 470.88,-618.8 400.41,-518.39 447.94,-463.3 470.88,-342.8 482.51,-281.68 460.09,-212.6 522.3,-212.6"/>
<polygon fill="black" stroke="black" points="581.66,-1050.6 571.08,-1047.7 576.39,-1051.43 572.11,-1052.1 572.11,-1052.1 572.11,-1052.1 576.39,-1051.43 572.47,-1056.59 581.66,-1050.6"/>
<text text-anchor="start" x="578.45" y="-1062.2" font-family="Arial" font-size="10.00">FOREIGN KEY (user_id) REFERENCES users(id) ON DELETE CASCADE</text>
</g>
<!-- public.personas&#45;&gt;public.preset_keys -->
<g id="edge2" class="edge">
<title>public.personas:preset_key_id&#45;&gt;public.preset_keys:id</title>
<path fill="none" stroke="black" d="M286.01,-959.42C164.46,-950 232.85,-769.97 297.3,-654.8 318.52,-616.89 359.09,-641.23 380.45,-603.4 401.03,-566.94 423.32,-509.2 381.45,-509.2"/>
<polygon fill="black" stroke="black" points="285.98,-959.41 295.8,-964.28 291.31,-959.61 295.64,-959.78 295.64,-959.78 295.64,-959.78 291.31,-959.61 296.14,-955.29 285.98,-959.41"/>
<text text-anchor="start" x="7" y="-969.8" font-family="Arial" font-size="10.00">FOREIGN KEY (preset_key_id) REFERENCES preset_keys(id)</text>
</g>
<!-- public.chats -->
<g id="node4" class="node">
<title>public.chats</title>
<polygon fill="#efefef" stroke="none" points="523.3,-540 523.3,-575.6 796.45,-575.6 796.45,-540 523.3,-540"/>
<polygon fill="none" stroke="black" points="523.3,-540 523.3,-575.6 796.45,-575.6 796.45,-540 523.3,-540"/>
<text text-anchor="start" x="554.39" y="-553.4" font-family="Arial Bold" font-size="18.00">public.chats</text>
<text text-anchor="start" x="640.87" y="-553.4" font-family="Arial" font-size="14.00">    </text>
<text text-anchor="start" x="671.99" y="-553.4" font-family="Arial" font-size="14.00" fill="#666666">[BASE TABLE]</text>
<polygon fill="none" stroke="black" points="523.3,-509.2 523.3,-540 796.45,-540 796.45,-509.2 523.3,-509.2"/>
<text text-anchor="start" x="530.3" y="-521.4" font-family="Arial" font-size="14.00">id </text>
<text text-anchor="start" x="545.09" y="-521.4" font-family="Arial" font-size="14.00" fill="#666666">[uuid]</text>
<polygon fill="none" stroke="black" points="523.3,-478.4 523.3,-509.2 796.45,-509.2 796.45,-478.4 523.3,-478.4"/>
<text text-anchor="start" x="530.3" y="-490.6" font-family="Arial" font-size="14.00">user_id </text>
<text text-anchor="start" x="580.11" y="-490.6" font-family="Arial" font-size="14.00" fill="#666666">[uuid]</text>
<polygon fill="none" stroke="black" points="523.3,-447.6 523.3,-478.4 796.45,-478.4 796.45,-447.6 523.3,-447.6"/>
<text text-anchor="start" x="530.3" y="-459.8" font-family="Arial" font-size="14.00">title </text>
<text text-anchor="start" x="555.98" y="-459.8" font-family="Arial" font-size="14.00" fill="#666666">[varchar(200)]</text>
<polygon fill="none" stroke="black" points="523.3,-416.8 523.3,-447.6 796.45,-447.6 796.45,-416.8 523.3,-416.8"/>
<text text-anchor="start" x="530.3" y="-429" font-family="Arial" font-size="14.00">created_at </text>
<text text-anchor="start" x="600.35" y="-429" font-family="Arial" font-size="14.00" fill="#666666">[timestamp without time zone]</text>
<polygon fill="none" stroke="black" points="523.3,-386 523.3,-416.8 796.45,-416.8 796.45,-386 523.3,-386"/>
<text text-anchor="start" x="530.3" y="-398.2" font-family="Arial" font-size="14.00">updated_at </text>
<text text-anchor="start" x="604.26" y="-398.2" font-family="Arial" font-size="14.00" fill="#666666">[timestamp without time zone]</text>
</g>
<!-- public.personas&#45;&gt;public.chats -->
<g id="edge3" class="edge">
<title>public.personas:chat_id&#45;&gt;public.chats:id</title>
<path fill="none" stroke="black" d="M581.67,-1019.67C648.78,-995.46 605.04,-724.5 570.45,-654.8 558.73,-631.19 535.12,-642.37 523.3,-618.8 504.54,-581.37 480.44,-524.6 522.3,-524.6"/>
<polygon fill="black" stroke="black" points="581.64,-1019.67 571.03,-1016.91 576.38,-1020.56 572.11,-1021.29 572.11,-1021.29 572.11,-1021.29 576.38,-1020.56 572.53,-1025.78 581.64,-1019.67"/>
<text text-anchor="start" x="578.45" y="-1031.4" font-family="Arial" font-size="10.00">FOREIGN KEY (chat_id) REFERENCES chats(id) ON DELETE CASCADE</text>
</g>
<!-- public.chats&#45;&gt;public.users -->
<g id="edge4" class="edge">
<title>public.chats:user_id&#45;&gt;public.users:id</title>
<path fill="none" stroke="black" d="M807.47,-491.2C859.74,-462.85 856.4,-212.6 797.45,-212.6"/>
<polygon fill="black" stroke="black" points="807.45,-491.2 796.64,-489.36 802.29,-492.54 798.1,-493.63 798.1,-493.63 798.1,-493.63 802.29,-492.54 798.9,-498.07 807.45,-491.2"/>
<text text-anchor="start" x="630.47" y="-477.8" font-family="Arial" font-size="10.00">FOREIGN KEY (user_id) REFERENCES users(id) ON DELETE CASCADE</text>
</g>
<!-- public.chat_participants -->
<g id="node5" class="node">
<title>public.chat_participants</title>
<polygon fill="#efefef" stroke="none" points="598.41,-1410.4 598.41,-1446 909.34,-1446 909.34,-1410.4 598.41,-1410.4"/>
<polygon fill="none" stroke="black" points="598.41,-1410.4 598.41,-1446 909.34,-1446 909.34,-1410.4 598.41,-1410.4"/>
<text text-anchor="start" x="605.41" y="-1423.8" font-family="Arial Bold" font-size="18.00">public.chat_participants</text>
<text text-anchor="start" x="777.85" y="-1423.8" font-family="Arial" font-size="14.00">    </text>
<text text-anchor="start" x="808.97" y="-1423.8" font-family="Arial" font-size="14.00" fill="#666666">[BASE TABLE]</text>
<polygon fill="none" stroke="black" points="598.41,-1379.6 598.41,-1410.4 909.34,-1410.4 909.34,-1379.6 598.41,-1379.6"/>
<text text-anchor="start" x="605.41" y="-1391.8" font-family="Arial" font-size="14.00">id </text>
<text text-anchor="start" x="620.2" y="-1391.8" font-family="Arial" font-size="14.00" fill="#666666">[uuid]</text>
<polygon fill="none" stroke="black" points="598.41,-1348.8 598.41,-1379.6 909.34,-1379.6 909.34,-1348.8 598.41,-1348.8"/>
<text text-anchor="start" x="605.41" y="-1361" font-family="Arial" font-size="14.00">chat_id </text>
<text text-anchor="start" x="654.45" y="-1361" font-family="Arial" font-size="14.00" fill="#666666">[uuid]</text>
<polygon fill="none" stroke="black" points="598.41,-1318 598.41,-1348.8 909.34,-1348.8 909.34,-1318 598.41,-1318"/>
<text text-anchor="start" x="605.41" y="-1330.2" font-family="Arial" font-size="14.00">persona_id </text>
<text text-anchor="start" x="678.58" y="-1330.2" font-family="Arial" font-size="14.00" fill="#666666">[uuid]</text>
<polygon fill="none" stroke="black" points="598.41,-1287.2 598.41,-1318 909.34,-1318 909.34,-1287.2 598.41,-1287.2"/>
<text text-anchor="start" x="605.41" y="-1299.4" font-family="Arial" font-size="14.00">joined_at </text>
<text text-anchor="start" x="666.13" y="-1299.4" font-family="Arial" font-size="14.00" fill="#666666">[timestamp without time zone]</text>
</g>
<!-- public.chat_participants&#45;&gt;public.personas -->
<g id="edge5" class="edge">
<title>public.chat_participants:persona_id&#45;&gt;public.personas:id</title>
<path fill="none" stroke="black" d="M587.27,-1332.59C498.32,-1317.05 679.62,-1083 571.45,-1083"/>
<polygon fill="black" stroke="black" points="587.11,-1332.58 596.72,-1337.86 592.43,-1333 596.74,-1333.35 596.74,-1333.35 596.74,-1333.35 592.43,-1333 597.44,-1328.89 587.11,-1332.58"/>
<text text-anchor="start" x="604.41" y="-1343.4" font-family="Arial" font-size="10.00">FOREIGN KEY (persona_id) REFERENCES personas(id) ON DELETE CASCADE</text>
</g>
<!-- public.chat_participants&#45;&gt;public.chats -->
<g id="edge6" class="edge">
<title>public.chat_participants:chat_id&#45;&gt;public.chats:id</title>
<path fill="none" stroke="black" d="M587.43,-1363.19C548.92,-1354.43 580.94,-1290.49 598.41,-1244 612.18,-1207.34 640.76,-1213.33 655.88,-1177.2 700.84,-1069.75 628.41,-747.55 698.88,-654.8 726.84,-618 769.82,-656.58 796.45,-618.8 820.57,-584.58 839.32,-524.6 797.45,-524.6"/>
<polygon fill="black" stroke="black" points="587.13,-1363.16 596.63,-1368.64 592.44,-1363.7 596.75,-1364.13 596.75,-1364.13 596.75,-1364.13 592.44,-1363.7 597.53,-1359.69 587.13,-1363.16"/>
<text text-anchor="start" x="604.41" y="-1374.2" font-family="Arial" font-size="10.00">FOREIGN KEY (chat_id) REFERENCES chats(id) ON DELETE CASCADE</text>
</g>
<!-- public.messages -->
<g id="node6" class="node">
<title>public.messages</title>
<polygon fill="#efefef" stroke="none" points="225.26,-1441.2 225.26,-1476.8 494.49,-1476.8 494.49,-1441.2 225.26,-1441.2"/>
<polygon fill="none" stroke="black" points="225.26,-1441.2 225.26,-1476.8 494.49,-1476.8 494.49,-1441.2 225.26,-1441.2"/>
<text text-anchor="start" x="238.89" y="-1454.6" font-family="Arial Bold" font-size="18.00">public.messages</text>
<text text-anchor="start" x="356.37" y="-1454.6" font-family="Arial" font-size="14.00">    </text>
<text text-anchor="start" x="387.49" y="-1454.6" font-family="Arial" font-size="14.00" fill="#666666">[BASE TABLE]</text>
<polygon fill="none" stroke="black" points="225.26,-1410.4 225.26,-1441.2 494.49,-1441.2 494.49,-1410.4 225.26,-1410.4"/>
<text text-anchor="start" x="232.26" y="-1422.6" font-family="Arial" font-size="14.00">id </text>
<text text-anchor="start" x="247.05" y="-1422.6" font-family="Arial" font-size="14.00" fill="#666666">[uuid]</text>
<polygon fill="none" stroke="black" points="225.26,-1379.6 225.26,-1410.4 494.49,-1410.4 494.49,-1379.6 225.26,-1379.6"/>
<text text-anchor="start" x="232.26" y="-1391.8" font-family="Arial" font-size="14.00">chat_id </text>
<text text-anchor="start" x="281.29" y="-1391.8" font-family="Arial" font-size="14.00" fill="#666666">[uuid]</text>
<polygon fill="none" stroke="black" points="225.26,-1348.8 225.26,-1379.6 494.49,-1379.6 494.49,-1348.8 225.26,-1348.8"/>
<text text-anchor="start" x="232.26" y="-1361" font-family="Arial" font-size="14.00">sender_type </text>
<text text-anchor="start" x="313.2" y="-1361" font-family="Arial" font-size="14.00" fill="#666666">[varchar(10)]</text>
<polygon fill="none" stroke="black" points="225.26,-1318 225.26,-1348.8 494.49,-1348.8 494.49,-1318 225.26,-1318"/>
<text text-anchor="start" x="232.26" y="-1330.2" font-family="Arial" font-size="14.00">persona_id </text>
<text text-anchor="start" x="305.42" y="-1330.2" font-family="Arial" font-size="14.00" fill="#666666">[uuid]</text>
<polygon fill="none" stroke="black" points="225.26,-1287.2 225.26,-1318 494.49,-1318 494.49,-1287.2 225.26,-1287.2"/>
<text text-anchor="start" x="232.26" y="-1299.4" font-family="Arial" font-size="14.00">content </text>
<text text-anchor="start" x="282.07" y="-1299.4" font-family="Arial" font-size="14.00" fill="#666666">[text]</text>
<polygon fill="none" stroke="black" points="225.26,-1256.4 225.26,-1287.2 494.49,-1287.2 494.49,-1256.4 225.26,-1256.4"/>
<text text-anchor="start" x="232.26" y="-1268.6" font-family="Arial" font-size="14.00">created_at </text>
<text text-anchor="start" x="302.31" y="-1268.6" font-family="Arial" font-size="14.00" fill="#666666">[timestamp without time zone]</text>
</g>
<!-- public.messages&#45;&gt;public.personas -->
<g id="edge7" class="edge">
<title>public.messages:persona_id&#45;&gt;public.personas:id</title>
<path fill="none" stroke="black" d="M505.69,-1332.26C546.03,-1322.44 526.46,-1251.21 494.49,-1213.2 437.15,-1145.02 354.73,-1245.31 297.3,-1177.2 270.32,-1145.19 254.44,-1083 296.3,-1083"/>
<polygon fill="black" stroke="black" points="505.76,-1332.26 495.33,-1328.89 500.46,-1332.85 496.16,-1333.33 496.16,-1333.33 496.16,-1333.33 500.46,-1332.85 496.32,-1337.84 505.76,-1332.26"/>
<text text-anchor="start" x="121.72" y="-1343.4" font-family="Arial" font-size="10.00">FOREIGN KEY (persona_id) REFERENCES personas(id) ON DELETE SET NULL</text>
</g>
<!-- public.messages&#45;&gt;public.chats -->
<g id="edge8" class="edge">
<title>public.messages:chat_id&#45;&gt;public.chats:id</title>
<path fill="none" stroke="black" d="M505.78,-1394.3C571.75,-1384.53 494.17,-1274.35 545.88,-1213.2 570.27,-1184.35 602.59,-1209.07 622.88,-1177.2 654.04,-1128.23 656.22,-702.31 622.88,-654.8 595.84,-616.28 550.54,-657.17 523.3,-618.8 499.07,-584.66 480.44,-524.6 522.3,-524.6"/>
<polygon fill="black" stroke="black" points="505.8,-1394.3 495.52,-1390.49 500.48,-1394.66 496.16,-1394.95 496.16,-1394.95 496.16,-1394.95 500.48,-1394.66 496.13,-1399.47 505.8,-1394.3"/>
<text text-anchor="start" x="155.64" y="-1405" font-family="Arial" font-size="10.00">FOREIGN KEY (chat_id) REFERENCES chats(id) ON DELETE CASCADE</text>
</g>
<!-- public.insight_categories -->
<g id="node7" class="node">
<title>public.insight_categories</title>
<polygon fill="#efefef" stroke="none" points="939.4,-524.6 939.4,-560.2 1258.35,-560.2 1258.35,-524.6 939.4,-524.6"/>
<polygon fill="none" stroke="black" points="939.4,-524.6 939.4,-560.2 1258.35,-560.2 1258.35,-524.6 939.4,-524.6"/>
<text text-anchor="start" x="946.4" y="-538" font-family="Arial Bold" font-size="18.00">public.insight_categories</text>
<text text-anchor="start" x="1126.86" y="-538" font-family="Arial" font-size="14.00">    </text>
<text text-anchor="start" x="1157.98" y="-538" font-family="Arial" font-size="14.00" fill="#666666">[BASE TABLE]</text>
<polygon fill="none" stroke="black" points="939.4,-493.8 939.4,-524.6 1258.35,-524.6 1258.35,-493.8 939.4,-493.8"/>
<text text-anchor="start" x="946.4" y="-506" font-family="Arial" font-size="14.00">id </text>
<text text-anchor="start" x="961.19" y="-506" font-family="Arial" font-size="14.00" fill="#666666">[uuid]</text>
<polygon fill="none" stroke="black" points="939.4,-463 939.4,-493.8 1258.35,-493.8 1258.35,-463 939.4,-463"/>
<text text-anchor="start" x="946.4" y="-475.2" font-family="Arial" font-size="14.00">category_key </text>
<text text-anchor="start" x="1033.56" y="-475.2" font-family="Arial" font-size="14.00" fill="#666666">[varchar(50)]</text>
<polygon fill="none" stroke="black" points="939.4,-432.2 939.4,-463 1258.35,-463 1258.35,-432.2 939.4,-432.2"/>
<text text-anchor="start" x="946.4" y="-444.4" font-family="Arial" font-size="14.00">display_name </text>
<text text-anchor="start" x="1036.68" y="-444.4" font-family="Arial" font-size="14.00" fill="#666666">[varchar(50)]</text>
<polygon fill="none" stroke="black" points="939.4,-401.4 939.4,-432.2 1258.35,-432.2 1258.35,-401.4 939.4,-401.4"/>
<text text-anchor="start" x="946.4" y="-413.6" font-family="Arial" font-size="14.00">description </text>
<text text-anchor="start" x="1018" y="-413.6" font-family="Arial" font-size="14.00" fill="#666666">[text]</text>
</g>
<!-- public.insights -->
<g id="node8" class="node">
<title>public.insights</title>
<polygon fill="#efefef" stroke="none" points="751.26,-990.6 751.26,-1026.2 1020.49,-1026.2 1020.49,-990.6 751.26,-990.6"/>
<polygon fill="none" stroke="black" points="751.26,-990.6 751.26,-1026.2 1020.49,-1026.2 1020.49,-990.6 751.26,-990.6"/>
<text text-anchor="start" x="770.88" y="-1004" font-family="Arial Bold" font-size="18.00">public.insights</text>
<text text-anchor="start" x="876.38" y="-1004" font-family="Arial" font-size="14.00">    </text>
<text text-anchor="start" x="907.5" y="-1004" font-family="Arial" font-size="14.00" fill="#666666">[BASE TABLE]</text>
<polygon fill="none" stroke="black" points="751.26,-959.8 751.26,-990.6 1020.49,-990.6 1020.49,-959.8 751.26,-959.8"/>
<text text-anchor="start" x="758.26" y="-972" font-family="Arial" font-size="14.00">id </text>
<text text-anchor="start" x="773.05" y="-972" font-family="Arial" font-size="14.00" fill="#666666">[uuid]</text>
<polygon fill="none" stroke="black" points="751.26,-929 751.26,-959.8 1020.49,-959.8 1020.49,-929 751.26,-929"/>
<text text-anchor="start" x="758.26" y="-941.2" font-family="Arial" font-size="14.00">user_id </text>
<text text-anchor="start" x="808.07" y="-941.2" font-family="Arial" font-size="14.00" fill="#666666">[uuid]</text>
<polygon fill="none" stroke="black" points="751.26,-898.2 751.26,-929 1020.49,-929 1020.49,-898.2 751.26,-898.2"/>
<text text-anchor="start" x="758.26" y="-910.4" font-family="Arial" font-size="14.00">chat_id </text>
<text text-anchor="start" x="807.29" y="-910.4" font-family="Arial" font-size="14.00" fill="#666666">[uuid]</text>
<polygon fill="none" stroke="black" points="751.26,-867.4 751.26,-898.2 1020.49,-898.2 1020.49,-867.4 751.26,-867.4"/>
<text text-anchor="start" x="758.26" y="-879.6" font-family="Arial" font-size="14.00">category_id </text>
<text text-anchor="start" x="834.53" y="-879.6" font-family="Arial" font-size="14.00" fill="#666666">[uuid]</text>
<polygon fill="none" stroke="black" points="751.26,-836.6 751.26,-867.4 1020.49,-867.4 1020.49,-836.6 751.26,-836.6"/>
<text text-anchor="start" x="758.26" y="-848.8" font-family="Arial" font-size="14.00">content </text>
<text text-anchor="start" x="808.07" y="-848.8" font-family="Arial" font-size="14.00" fill="#666666">[text]</text>
<polygon fill="none" stroke="black" points="751.26,-805.8 751.26,-836.6 1020.49,-836.6 1020.49,-805.8 751.26,-805.8"/>
<text text-anchor="start" x="758.26" y="-818" font-family="Arial" font-size="14.00">created_at </text>
<text text-anchor="start" x="828.31" y="-818" font-family="Arial" font-size="14.00" fill="#666666">[timestamp without time zone]</text>
</g>
<!-- public.insights&#45;&gt;public.users -->
<g id="edge9" class="edge">
<title>public.insights:user_id&#45;&gt;public.users:id</title>
<path fill="none" stroke="black" d="M740.19,-943.78C674.59,-935.06 728.38,-836.3 751.26,-762.6 774.16,-688.83 826.18,-692.64 848.88,-618.8 875.61,-531.83 888.44,-212.6 797.45,-212.6"/>
<polygon fill="black" stroke="black" points="739.94,-943.76 749.65,-948.87 745.27,-944.09 749.59,-944.36 749.59,-944.36 749.59,-944.36 745.27,-944.09 750.2,-939.89 739.94,-943.76"/>
<text text-anchor="start" x="496.29" y="-928.4" font-family="Arial" font-size="10.00">FOREIGN KEY (user_id) REFERENCES users(id) ON DELETE CASCADE</text>
</g>
<!-- public.insights&#45;&gt;public.chats -->
<g id="edge10" class="edge">
<title>public.insights:chat_id&#45;&gt;public.chats:id</title>
<path fill="none" stroke="black" d="M740.25,-913.12C592.09,-897.81 968.03,-524.6 797.45,-524.6"/>
<polygon fill="black" stroke="black" points="739.94,-913.1 749.71,-918.08 745.27,-913.36 749.59,-913.57 749.59,-913.57 749.59,-913.57 745.27,-913.36 750.14,-909.09 739.94,-913.1"/>
<text text-anchor="start" x="497.53" y="-897.6" font-family="Arial" font-size="10.00">FOREIGN KEY (chat_id) REFERENCES chats(id) ON DELETE SET NULL</text>
</g>
<!-- public.insights&#45;&gt;public.insight_categories -->
<g id="edge11" class="edge">
<title>public.insights:category_id&#45;&gt;public.insight_categories:id</title>
<path fill="none" stroke="black" d="M1031.65,-882.29C1173.68,-866.92 771.96,-509.2 938.4,-509.2"/>
<polygon fill="black" stroke="black" points="1031.81,-882.28 1021.6,-878.29 1026.49,-882.55 1022.16,-882.77 1022.16,-882.77 1022.16,-882.77 1026.49,-882.55 1022.05,-887.28 1031.81,-882.28"/>
<text text-anchor="start" x="1028.49" y="-892.8" font-family="Arial" font-size="10.00">FOREIGN KEY (category_id) REFERENCES insight_categories(id)</text>
</g>
</g>
</svg>
